<svg xmlns="http://www.w3.org/2000/svg" xmlns:xlink="http://www.w3.org/1999/xlink" contentStyleType="text/css" data-diagram-type="ACTIVITY" height="2379px" preserveAspectRatio="none" style="width:934px;height:2379px;background:#FFFFFF;" version="1.1" viewBox="0 0 934 2379" width="934px" zoomAndPan="magnify"><title>TransCredit New System Workflow - Desired State</title><defs/><g><g class="title" data-source-line="1"><text fill="#000000" font-family="sans-serif" font-size="14" font-weight="bold" lengthAdjust="spacing" textLength="364.1982" x="283.4766" y="33.5352">TransCredit New System Workflow - Desired State</text></g><ellipse cx="574.5656" cy="57.4883" fill="#222222" rx="10" ry="10" style="stroke:#222222;stroke-width:1;"/><rect fill="#F1F1F1" height="34.1328" rx="12.5" ry="12.5" style="stroke:#181818;stroke-width:0.5;" width="144.043" x="502.5441" y="87.4883"/><text fill="#000000" font-family="sans-serif" font-size="12" lengthAdjust="spacing" textLength="124.043" x="512.5441" y="109.0898">Receive Agent Report</text><rect fill="#F1F1F1" height="34.1328" rx="12.5" ry="12.5" style="stroke:#181818;stroke-width:0.5;" width="232.168" x="458.4816" y="141.6211"/><text fill="#000000" font-family="sans-serif" font-size="12" lengthAdjust="spacing" textLength="212.168" x="468.4816" y="163.2227">Store in PlateauGroup.Web Database</text><path d="M685.2726,185.7539 L685.2726,225.0303 L665.2726,229.0303 L685.2726,233.0303 L685.2726,272.3066 A0,0 0 0 0 685.2726,272.3066 L890.3864,272.3066 A0,0 0 0 0 890.3864,272.3066 L890.3864,195.7539 L880.3864,185.7539 L685.2726,185.7539 A0,0 0 0 0 685.2726,185.7539" fill="#FEFFDD" style="stroke:#181818;stroke-width:0.5;"/><path d="M880.3864,185.7539 L880.3864,195.7539 L890.3864,195.7539 L880.3864,185.7539" fill="#FEFFDD" style="stroke:#181818;stroke-width:0.5;"/><text fill="#000000" font-family="sans-serif" font-size="13" lengthAdjust="spacing" textLength="154.1528" x="691.2726" y="203.3223">New Search Capabilities:</text><text fill="#000000" font-family="sans-serif" font-size="13" lengthAdjust="spacing" textLength="184.1138" x="691.2726" y="218.6328">- First/Last Name (wildcards)</text><text fill="#000000" font-family="sans-serif" font-size="13" lengthAdjust="spacing" textLength="63.2734" x="691.2726" y="233.9434">- Birthday</text><text fill="#000000" font-family="sans-serif" font-size="13" lengthAdjust="spacing" textLength="35.2422" x="691.2726" y="249.2539">- SSN</text><text fill="#000000" font-family="sans-serif" font-size="13" lengthAdjust="spacing" textLength="102.1274" x="691.2726" y="264.5645">- Claim Number</text><rect fill="#F1F1F1" height="34.1328" rx="12.5" ry="12.5" style="stroke:#181818;stroke-width:0.5;" width="181.4141" x="483.8585" y="211.9639"/><text fill="#000000" font-family="sans-serif" font-size="12" lengthAdjust="spacing" textLength="161.4141" x="493.8585" y="233.5654">Enhanced Certificate Search</text><rect fill="#F1F1F1" height="34.1328" rx="12.5" ry="12.5" style="stroke:#181818;stroke-width:0.5;" width="144.4004" x="502.3654" y="292.3066"/><text fill="#000000" font-family="sans-serif" font-size="12" lengthAdjust="spacing" textLength="124.4004" x="512.3654" y="313.9082">Input Certificate Data</text><path d="M690.7306,336.4395 L690.7306,368.0605 L670.7306,372.0605 L690.7306,376.0605 L690.7306,407.6816 A0,0 0 0 0 690.7306,407.6816 L889.795,407.6816 A0,0 0 0 0 889.795,407.6816 L889.795,346.4395 L879.795,336.4395 L690.7306,336.4395 A0,0 0 0 0 690.7306,336.4395" fill="#FEFFDD" style="stroke:#181818;stroke-width:0.5;"/><path d="M879.795,336.4395 L879.795,346.4395 L889.795,346.4395 L879.795,336.4395" fill="#FEFFDD" style="stroke:#181818;stroke-width:0.5;"/><text fill="#000000" font-family="sans-serif" font-size="13" lengthAdjust="spacing" textLength="153.3276" x="696.7306" y="354.0078">Integrated Error Checks:</text><text fill="#000000" font-family="sans-serif" font-size="13" lengthAdjust="spacing" textLength="178.0645" x="696.7306" y="369.3184">- All Access/SQL validations</text><text fill="#000000" font-family="sans-serif" font-size="13" lengthAdjust="spacing" textLength="141.8638" x="696.7306" y="384.6289">- Certificate validation</text><text fill="#000000" font-family="sans-serif" font-size="13" lengthAdjust="spacing" textLength="155.4795" x="696.7306" y="399.9395">- Agent limit verification</text><rect fill="#F1F1F1" height="34.1328" rx="12.5" ry="12.5" style="stroke:#181818;stroke-width:0.5;" width="192.3301" x="478.4005" y="354.9941"/><text fill="#000000" font-family="sans-serif" font-size="12" lengthAdjust="spacing" textLength="172.3301" x="488.4005" y="376.5957">Run Enhanced Error Checking</text><polygon fill="#F1F1F1" points="538.9015,427.6816,610.2296,427.6816,622.2296,439.6816,610.2296,451.6816,538.9015,451.6816,526.9015,439.6816,538.9015,427.6816" style="stroke:#181818;stroke-width:0.5;"/><text fill="#000000" font-family="sans-serif" font-size="11" lengthAdjust="spacing" textLength="71.3281" x="538.9015" y="443.8389">Errors found?</text><text fill="#000000" font-family="sans-serif" font-size="11" lengthAdjust="spacing" textLength="17.4829" x="509.4186" y="437.3613">yes</text><text fill="#000000" font-family="sans-serif" font-size="11" lengthAdjust="spacing" textLength="13.5835" x="622.2296" y="437.3613">no</text><rect fill="#F1F1F1" height="34.1328" rx="12.5" ry="12.5" style="stroke:#181818;stroke-width:0.5;" width="161.9785" x="272.7144" y="461.6816"/><text fill="#000000" font-family="sans-serif" font-size="12" lengthAdjust="spacing" textLength="141.9785" x="282.7144" y="483.2832">Create CertError records</text><rect fill="#F1F1F1" height="34.1328" rx="12.5" ry="12.5" style="stroke:#181818;stroke-width:0.5;" width="206.1699" x="250.6187" y="515.8145"/><text fill="#000000" font-family="sans-serif" font-size="12" lengthAdjust="spacing" textLength="186.1699" x="260.6187" y="537.416">Generate Agent Communication</text><path d="M442.23,559.9473 L442.23,599.2236 L422.23,603.2236 L442.23,607.2236 L442.23,646.5 A0,0 0 0 0 442.23,646.5 L633.874,646.5 A0,0 0 0 0 633.874,646.5 L633.874,569.9473 L623.874,559.9473 L442.23,559.9473 A0,0 0 0 0 442.23,559.9473" fill="#FEFFDD" style="stroke:#181818;stroke-width:0.5;"/><path d="M623.874,559.9473 L623.874,569.9473 L633.874,569.9473 L623.874,559.9473" fill="#FEFFDD" style="stroke:#181818;stroke-width:0.5;"/><text fill="#000000" font-family="sans-serif" font-size="13" lengthAdjust="spacing" textLength="94.4658" x="448.23" y="577.5156">Email includes:</text><text fill="#000000" font-family="sans-serif" font-size="13" lengthAdjust="spacing" textLength="142.1685" x="448.23" y="592.8262">- AgentReportEmail ID</text><text fill="#000000" font-family="sans-serif" font-size="13" lengthAdjust="spacing" textLength="170.644" x="448.23" y="608.1367">- Spreadsheet attachments</text><text fill="#000000" font-family="sans-serif" font-size="13" lengthAdjust="spacing" textLength="119.7676" x="448.23" y="623.4473">- DMZ website link</text><text fill="#000000" font-family="sans-serif" font-size="13" lengthAdjust="spacing" textLength="170.3203" x="448.23" y="638.7578">- Specific certificates to fix</text><rect fill="#F1F1F1" height="34.1328" rx="12.5" ry="12.5" style="stroke:#181818;stroke-width:0.5;" width="137.0527" x="285.1772" y="586.1572"/><text fill="#000000" font-family="sans-serif" font-size="12" lengthAdjust="spacing" textLength="117.0527" x="295.1772" y="607.7588">Send Email to Agent</text><rect fill="#F1F1F1" height="34.1328" rx="12.5" ry="12.5" style="stroke:#181818;stroke-width:0.5;" width="183.5645" x="261.9214" y="666.5"/><text fill="#000000" font-family="sans-serif" font-size="12" lengthAdjust="spacing" textLength="163.5645" x="271.9214" y="688.1016">Copy Data to DMZ Database</text><rect fill="#F1F1F1" height="34.1328" rx="12.5" ry="12.5" style="stroke:#181818;stroke-width:0.5;" width="199.3379" x="254.0347" y="720.6328"/><text fill="#000000" font-family="sans-serif" font-size="12" lengthAdjust="spacing" textLength="179.3379" x="264.0347" y="742.2344">Store AgentReportEmail record</text><rect fill="#F1F1F1" height="34.1328" rx="12.5" ry="12.5" style="stroke:#181818;stroke-width:0.5;" width="140.3398" x="283.5337" y="774.7656"/><text fill="#000000" font-family="sans-serif" font-size="12" lengthAdjust="spacing" textLength="120.3398" x="293.5337" y="796.3672">Agent receives email</text><path d="M468.0171,818.8984 L468.0171,858.1748 L448.0171,862.1748 L468.0171,866.1748 L468.0171,905.4512 A0,0 0 0 0 468.0171,905.4512 L664.8218,905.4512 A0,0 0 0 0 664.8218,905.4512 L664.8218,828.8984 L654.8218,818.8984 L468.0171,818.8984 A0,0 0 0 0 468.0171,818.8984" fill="#FEFFDD" style="stroke:#181818;stroke-width:0.5;"/><path d="M654.8218,818.8984 L654.8218,828.8984 L664.8218,828.8984 L654.8218,818.8984" fill="#FEFFDD" style="stroke:#181818;stroke-width:0.5;"/><text fill="#000000" font-family="sans-serif" font-size="13" lengthAdjust="spacing" textLength="90.5303" x="474.0171" y="836.4668">DMZ Features:</text><text fill="#000000" font-family="sans-serif" font-size="13" lengthAdjust="spacing" textLength="175.8047" x="474.0171" y="851.7773">- Auth0 MFA authentication</text><text fill="#000000" font-family="sans-serif" font-size="13" lengthAdjust="spacing" textLength="146.5229" x="474.0171" y="867.0879">- View pending reports</text><text fill="#000000" font-family="sans-serif" font-size="13" lengthAdjust="spacing" textLength="108.5449" x="474.0171" y="882.3984">- Edit certificates</text><text fill="#000000" font-family="sans-serif" font-size="13" lengthAdjust="spacing" textLength="130.2412" x="474.0171" y="897.709">- Submit corrections</text><rect fill="#F1F1F1" height="34.1328" rx="12.5" ry="12.5" style="stroke:#181818;stroke-width:0.5;" width="188.627" x="259.3901" y="845.1084"/><text fill="#000000" font-family="sans-serif" font-size="12" lengthAdjust="spacing" textLength="168.627" x="269.3901" y="866.71">Agent logs into DMZ Website</text><rect fill="#F1F1F1" height="34.1328" rx="12.5" ry="12.5" style="stroke:#181818;stroke-width:0.5;" width="164.6855" x="271.3608" y="925.4512"/><text fill="#000000" font-family="sans-serif" font-size="12" lengthAdjust="spacing" textLength="144.6855" x="281.3608" y="947.0527">Agent makes corrections</text><rect fill="#F1F1F1" height="34.1328" rx="12.5" ry="12.5" style="stroke:#181818;stroke-width:0.5;" width="198.0488" x="254.6792" y="979.584"/><text fill="#000000" font-family="sans-serif" font-size="12" lengthAdjust="spacing" textLength="178.0488" x="264.6792" y="1001.1855">DMZ system validates changes</text><polygon fill="#F1F1F1" points="289.7983,1033.7168,417.6089,1033.7168,429.6089,1045.7168,417.6089,1057.7168,289.7983,1057.7168,277.7983,1045.7168,289.7983,1033.7168" style="stroke:#181818;stroke-width:0.5;"/><text fill="#000000" font-family="sans-serif" font-size="11" lengthAdjust="spacing" textLength="127.8105" x="289.7983" y="1049.874">Agent corrections valid?</text><text fill="#000000" font-family="sans-serif" font-size="11" lengthAdjust="spacing" textLength="17.4829" x="260.3154" y="1043.3965">yes</text><text fill="#000000" font-family="sans-serif" font-size="11" lengthAdjust="spacing" textLength="13.5835" x="429.6089" y="1043.3965">no</text><rect fill="#F1F1F1" height="34.1328" rx="12.5" ry="12.5" style="stroke:#181818;stroke-width:0.5;" width="155.8613" x="116.9131" y="1067.7168"/><text fill="#000000" font-family="sans-serif" font-size="12" lengthAdjust="spacing" textLength="135.8613" x="126.9131" y="1089.3184">Insert OpsLog message</text><rect fill="#F1F1F1" height="34.1328" rx="12.5" ry="12.5" style="stroke:#181818;stroke-width:0.5;" width="193.8594" x="97.9141" y="1121.8496"/><text fill="#000000" font-family="sans-serif" font-size="12" lengthAdjust="spacing" textLength="173.8594" x="107.9141" y="1143.4512">Notify PlateauGroup.Web user</text><rect fill="#F1F1F1" height="34.1328" rx="12.5" ry="12.5" style="stroke:#181818;stroke-width:0.5;" width="144.8984" x="122.3945" y="1175.9824"/><text fill="#000000" font-family="sans-serif" font-size="12" lengthAdjust="spacing" textLength="124.8984" x="132.3945" y="1197.584">User reviews changes</text><polygon fill="#F1F1F1" points="142.8542,1230.1152,246.8333,1230.1152,258.8333,1242.1152,246.8333,1254.1152,142.8542,1254.1152,130.8542,1242.1152,142.8542,1230.1152" style="stroke:#181818;stroke-width:0.5;"/><text fill="#000000" font-family="sans-serif" font-size="11" lengthAdjust="spacing" textLength="103.979" x="142.8542" y="1246.2725">Changes approved?</text><text fill="#000000" font-family="sans-serif" font-size="11" lengthAdjust="spacing" textLength="17.4829" x="113.3713" y="1239.7949">yes</text><text fill="#000000" font-family="sans-serif" font-size="11" lengthAdjust="spacing" textLength="13.5835" x="258.8333" y="1239.7949">no</text><rect fill="#F1F1F1" height="34.1328" rx="12.5" ry="12.5" style="stroke:#181818;stroke-width:0.5;" width="166.0273" x="11" y="1264.1152"/><text fill="#000000" font-family="sans-serif" font-size="12" lengthAdjust="spacing" textLength="146.0273" x="21" y="1285.7168">Update apsPlateau tables</text><rect fill="#F1F1F1" height="34.1328" rx="12.5" ry="12.5" style="stroke:#181818;stroke-width:0.5;" width="128.4512" x="29.7881" y="1318.248"/><text fill="#000000" font-family="sans-serif" font-size="12" lengthAdjust="spacing" textLength="108.4512" x="39.7881" y="1339.8496">Sync DMZ changes</text><rect fill="#F1F1F1" height="34.1328" rx="12.5" ry="12.5" style="stroke:#181818;stroke-width:0.5;" width="197.293" x="197.0273" y="1264.1152"/><text fill="#000000" font-family="sans-serif" font-size="12" lengthAdjust="spacing" textLength="177.293" x="207.0273" y="1285.7168">Request additional corrections</text><polygon fill="#F1F1F1" points="194.8438,1358.3809,206.8438,1370.3809,194.8438,1382.3809,182.8438,1370.3809,194.8438,1358.3809" style="stroke:#181818;stroke-width:0.5;"/><rect fill="#F1F1F1" height="34.1328" rx="12.5" ry="12.5" style="stroke:#181818;stroke-width:0.5;" width="176.4863" x="424.3203" y="1067.7168"/><text fill="#000000" font-family="sans-serif" font-size="12" lengthAdjust="spacing" textLength="156.4863" x="434.3203" y="1089.3184">Request agent to fix errors</text><polygon fill="#F1F1F1" points="353.7036,1388.3809,365.7036,1400.3809,353.7036,1412.3809,341.7036,1400.3809,353.7036,1388.3809" style="stroke:#181818;stroke-width:0.5;"/><rect fill="#F1F1F1" height="34.1328" rx="12.5" ry="12.5" style="stroke:#181818;stroke-width:0.5;" width="152.5332" x="277.437" y="1432.3809"/><text fill="#000000" font-family="sans-serif" font-size="12" lengthAdjust="spacing" textLength="132.5332" x="287.437" y="1453.9824">Monitor Inbound Email</text><polygon fill="#F1F1F1" points="255.8342,1486.5137,451.573,1486.5137,463.573,1498.5137,451.573,1510.5137,255.8342,1510.5137,243.8342,1498.5137,255.8342,1486.5137" style="stroke:#181818;stroke-width:0.5;"/><text fill="#000000" font-family="sans-serif" font-size="11" lengthAdjust="spacing" textLength="195.7388" x="255.8342" y="1502.6709">Email contains AgentReportEmail ID?</text><text fill="#000000" font-family="sans-serif" font-size="11" lengthAdjust="spacing" textLength="17.4829" x="226.3513" y="1496.1934">yes</text><text fill="#000000" font-family="sans-serif" font-size="11" lengthAdjust="spacing" textLength="13.5835" x="463.573" y="1496.1934">no</text><rect fill="#F1F1F1" height="34.1328" rx="12.5" ry="12.5" style="stroke:#181818;stroke-width:0.5;" width="166.4492" x="141.2214" y="1520.5137"/><text fill="#000000" font-family="sans-serif" font-size="12" lengthAdjust="spacing" textLength="146.4492" x="151.2214" y="1542.1152">Parse and store response</text><rect fill="#F1F1F1" height="34.1328" rx="12.5" ry="12.5" style="stroke:#181818;stroke-width:0.5;" width="232.6016" x="366.6604" y="1520.5137"/><text fill="#000000" font-family="sans-serif" font-size="12" lengthAdjust="spacing" textLength="212.6016" x="376.6604" y="1542.1152">Search for matching outbound email</text><polygon fill="#F1F1F1" points="447.1494,1574.6465,518.7729,1574.6465,530.7729,1586.6465,518.7729,1598.6465,447.1494,1598.6465,435.1494,1586.6465,447.1494,1574.6465" style="stroke:#181818;stroke-width:0.5;"/><text fill="#000000" font-family="sans-serif" font-size="11" lengthAdjust="spacing" textLength="71.6235" x="447.1494" y="1590.8037">Match found?</text><text fill="#000000" font-family="sans-serif" font-size="11" lengthAdjust="spacing" textLength="17.4829" x="417.6665" y="1584.3262">yes</text><text fill="#000000" font-family="sans-serif" font-size="11" lengthAdjust="spacing" textLength="13.5835" x="530.7729" y="1584.3262">no</text><rect fill="#F1F1F1" height="34.1328" rx="12.5" ry="12.5" style="stroke:#181818;stroke-width:0.5;" width="107.1289" x="337.6707" y="1608.6465"/><text fill="#000000" font-family="sans-serif" font-size="12" lengthAdjust="spacing" textLength="87.1289" x="347.6707" y="1630.248">Link responses</text><rect fill="#F1F1F1" height="34.1328" rx="12.5" ry="12.5" style="stroke:#181818;stroke-width:0.5;" width="204.9102" x="472.2322" y="1608.6465"/><text fill="#000000" font-family="sans-serif" font-size="12" lengthAdjust="spacing" textLength="184.9102" x="482.2322" y="1630.248">Reply to agent with instructions</text><rect fill="#F1F1F1" height="34.1328" rx="12.5" ry="12.5" style="stroke:#181818;stroke-width:0.5;" width="219.7754" x="464.7996" y="1662.7793"/><text fill="#000000" font-family="sans-serif" font-size="12" lengthAdjust="spacing" textLength="199.7754" x="474.7996" y="1684.3809">Forward to user for manual review</text><polygon fill="#F1F1F1" points="482.9612,1702.9121,494.9612,1714.9121,482.9612,1726.9121,470.9612,1714.9121,482.9612,1702.9121" style="stroke:#181818;stroke-width:0.5;"/><polygon fill="#F1F1F1" points="353.7036,1732.9121,365.7036,1744.9121,353.7036,1756.9121,341.7036,1744.9121,353.7036,1732.9121" style="stroke:#181818;stroke-width:0.5;"/><rect fill="#F1F1F1" height="34.1328" rx="12.5" ry="12.5" style="stroke:#181818;stroke-width:0.5;" width="141.7051" x="724.575" y="461.6816"/><text fill="#000000" font-family="sans-serif" font-size="12" lengthAdjust="spacing" textLength="121.7051" x="734.575" y="483.2832">Proceed to balancing</text><polygon fill="#F1F1F1" points="574.5656,1762.9121,586.5656,1774.9121,574.5656,1786.9121,562.5656,1774.9121,574.5656,1762.9121" style="stroke:#181818;stroke-width:0.5;"/><path d="M694.7384,1796.9121 L694.7384,1828.5332 L674.7384,1832.5332 L694.7384,1836.5332 L694.7384,1868.1543 A0,0 0 0 0 694.7384,1868.1543 L922.1515,1868.1543 A0,0 0 0 0 922.1515,1868.1543 L922.1515,1806.9121 L912.1515,1796.9121 L694.7384,1796.9121 A0,0 0 0 0 694.7384,1796.9121" fill="#FEFFDD" style="stroke:#181818;stroke-width:0.5;"/><path d="M912.1515,1796.9121 L912.1515,1806.9121 L922.1515,1806.9121 L912.1515,1796.9121" fill="#FEFFDD" style="stroke:#181818;stroke-width:0.5;"/><text fill="#000000" font-family="sans-serif" font-size="13" lengthAdjust="spacing" textLength="116.124" x="700.7384" y="1814.4805">Balancing Process:</text><text fill="#000000" font-family="sans-serif" font-size="13" lengthAdjust="spacing" textLength="206.4131" x="700.7384" y="1829.791">- Compare Report vs Remittance</text><text fill="#000000" font-family="sans-serif" font-size="13" lengthAdjust="spacing" textLength="185.1484" x="700.7384" y="1845.1016">- Validate against CertMaster</text><text fill="#000000" font-family="sans-serif" font-size="13" lengthAdjust="spacing" textLength="156.2031" x="700.7384" y="1860.4121">- Financial reconciliation</text><rect fill="#F1F1F1" height="34.1328" rx="12.5" ry="12.5" style="stroke:#181818;stroke-width:0.5;" width="200.3457" x="474.3927" y="1815.4668"/><text fill="#000000" font-family="sans-serif" font-size="12" lengthAdjust="spacing" textLength="180.3457" x="484.3927" y="1837.0684">Balance Report and Remittance</text><polygon fill="#F1F1F1" points="548.6608,1888.1543,600.4703,1888.1543,612.4703,1900.1543,600.4703,1912.1543,548.6608,1912.1543,536.6608,1900.1543,548.6608,1888.1543" style="stroke:#181818;stroke-width:0.5;"/><text fill="#000000" font-family="sans-serif" font-size="11" lengthAdjust="spacing" textLength="51.8096" x="548.6608" y="1904.3115">Balanced?</text><text fill="#000000" font-family="sans-serif" font-size="11" lengthAdjust="spacing" textLength="17.4829" x="519.1779" y="1897.834">yes</text><text fill="#000000" font-family="sans-serif" font-size="11" lengthAdjust="spacing" textLength="13.5835" x="612.4703" y="1897.834">no</text><rect fill="#F1F1F1" height="34.1328" rx="12.5" ry="12.5" style="stroke:#181818;stroke-width:0.5;" width="184.3262" x="380.4884" y="1922.1543"/><text fill="#000000" font-family="sans-serif" font-size="12" lengthAdjust="spacing" textLength="164.3262" x="390.4884" y="1943.7559">Complete Report Processing</text><rect fill="#F1F1F1" height="34.1328" rx="12.5" ry="12.5" style="stroke:#181818;stroke-width:0.5;" width="192.9629" x="376.17" y="1976.2871"/><text fill="#000000" font-family="sans-serif" font-size="12" lengthAdjust="spacing" textLength="172.9629" x="386.17" y="1997.8887">Generate final documentation</text><rect fill="#F1F1F1" height="34.1328" rx="12.5" ry="12.5" style="stroke:#181818;stroke-width:0.5;" width="112.0039" x="620.4777" y="1922.1543"/><text fill="#000000" font-family="sans-serif" font-size="12" lengthAdjust="spacing" textLength="92.0039" x="630.4777" y="1943.7559">Adjust balances</text><rect fill="#F1F1F1" height="34.1328" rx="12.5" ry="12.5" style="stroke:#181818;stroke-width:0.5;" width="174.6934" x="589.1329" y="1976.2871"/><text fill="#000000" font-family="sans-serif" font-size="12" lengthAdjust="spacing" textLength="154.6934" x="599.1329" y="1997.8887">Create adjustment records</text><polygon fill="#F1F1F1" points="574.5656,2016.4199,586.5656,2028.4199,574.5656,2040.4199,562.5656,2028.4199,574.5656,2016.4199" style="stroke:#181818;stroke-width:0.5;"/><path d="M683.3917,2050.4199 L683.3917,2089.6963 L663.3917,2093.6963 L683.3917,2097.6963 L683.3917,2136.9727 A0,0 0 0 0 683.3917,2136.9727 L849.7467,2136.9727 A0,0 0 0 0 849.7467,2136.9727 L849.7467,2060.4199 L839.7467,2050.4199 L683.3917,2050.4199 A0,0 0 0 0 683.3917,2050.4199" fill="#FEFFDD" style="stroke:#181818;stroke-width:0.5;"/><path d="M839.7467,2050.4199 L839.7467,2060.4199 L849.7467,2060.4199 L839.7467,2050.4199" fill="#FEFFDD" style="stroke:#181818;stroke-width:0.5;"/><text fill="#000000" font-family="sans-serif" font-size="13" lengthAdjust="spacing" textLength="93.1265" x="689.3917" y="2067.9883">Audit Logging:</text><text fill="#000000" font-family="sans-serif" font-size="13" lengthAdjust="spacing" textLength="145.355" x="689.3917" y="2083.2988">- Every change tracked</text><text fill="#000000" font-family="sans-serif" font-size="13" lengthAdjust="spacing" textLength="114.3848" x="689.3917" y="2098.6094">- Reason required</text><text fill="#000000" font-family="sans-serif" font-size="13" lengthAdjust="spacing" textLength="138.4741" x="689.3917" y="2113.9199">- User and timestamp</text><text fill="#000000" font-family="sans-serif" font-size="13" lengthAdjust="spacing" textLength="111.0713" x="689.3917" y="2129.2305">- Old/New values</text><rect fill="#F1F1F1" height="34.1328" rx="12.5" ry="12.5" style="stroke:#181818;stroke-width:0.5;" width="177.6523" x="485.7394" y="2076.6299"/><text fill="#000000" font-family="sans-serif" font-size="12" lengthAdjust="spacing" textLength="157.6523" x="495.7394" y="2098.2314">Log All Certificate Changes</text><rect fill="#F1F1F1" height="34.1328" rx="12.5" ry="12.5" style="stroke:#181818;stroke-width:0.5;" width="225.9102" x="461.6105" y="2156.9727"/><text fill="#000000" font-family="sans-serif" font-size="12" lengthAdjust="spacing" textLength="205.9102" x="471.6105" y="2178.5742">Generate Communication Summary</text><rect fill="#F1F1F1" height="34.1328" rx="12.5" ry="12.5" style="stroke:#181818;stroke-width:0.5;" width="187.2441" x="480.9435" y="2211.1055"/><text fill="#000000" font-family="sans-serif" font-size="12" lengthAdjust="spacing" textLength="167.2441" x="490.9435" y="2232.707">Display on Agent Report Tab</text><path d="M660.6808,2255.2383 L660.6808,2286.8594 L640.6808,2290.8594 L660.6808,2294.8594 L660.6808,2326.4805 A0,0 0 0 0 660.6808,2326.4805 L884.1901,2326.4805 A0,0 0 0 0 884.1901,2326.4805 L884.1901,2265.2383 L874.1901,2255.2383 L660.6808,2255.2383 A0,0 0 0 0 660.6808,2255.2383" fill="#FEFFDD" style="stroke:#181818;stroke-width:0.5;"/><path d="M874.1901,2255.2383 L874.1901,2265.2383 L884.1901,2265.2383 L874.1901,2255.2383" fill="#FEFFDD" style="stroke:#181818;stroke-width:0.5;"/><text fill="#000000" font-family="sans-serif" font-size="13" lengthAdjust="spacing" textLength="153.061" x="666.6808" y="2272.8066">After report completion:</text><text fill="#000000" font-family="sans-serif" font-size="13" lengthAdjust="spacing" textLength="202.5093" x="666.6808" y="2288.1172">- Delete DMZ certificate records</text><text fill="#000000" font-family="sans-serif" font-size="13" lengthAdjust="spacing" textLength="185.7642" x="666.6808" y="2303.4277">- Delete agent report records</text><text fill="#000000" font-family="sans-serif" font-size="13" lengthAdjust="spacing" textLength="130.8569" x="666.6808" y="2318.7383">- Maintain audit trail</text><rect fill="#F1F1F1" height="34.1328" rx="12.5" ry="12.5" style="stroke:#181818;stroke-width:0.5;" width="132.2305" x="508.4503" y="2273.793"/><text fill="#000000" font-family="sans-serif" font-size="12" lengthAdjust="spacing" textLength="112.2305" x="518.4503" y="2295.3945">Clean up DMZ Data</text><ellipse cx="574.5656" cy="2357.4805" fill="none" rx="11" ry="11" style="stroke:#222222;stroke-width:1;"/><ellipse cx="574.5656" cy="2357.4805" fill="#222222" rx="6" ry="6" style="stroke:#222222;stroke-width:1;"/><line style="stroke:#181818;stroke-width:1;" x1="574.5656" x2="574.5656" y1="67.4883" y2="87.4883"/><polygon fill="#181818" points="570.5656,77.4883,574.5656,87.4883,578.5656,77.4883,574.5656,81.4883" style="stroke:#181818;stroke-width:1;"/><line style="stroke:#181818;stroke-width:1;" x1="574.5656" x2="574.5656" y1="121.6211" y2="141.6211"/><polygon fill="#181818" points="570.5656,131.6211,574.5656,141.6211,578.5656,131.6211,574.5656,135.6211" style="stroke:#181818;stroke-width:1;"/><line style="stroke:#181818;stroke-width:1;" x1="574.5656" x2="574.5656" y1="175.7539" y2="211.9639"/><polygon fill="#181818" points="570.5656,201.9639,574.5656,211.9639,578.5656,201.9639,574.5656,205.9639" style="stroke:#181818;stroke-width:1;"/><line style="stroke:#181818;stroke-width:1;" x1="574.5656" x2="574.5656" y1="246.0967" y2="292.3066"/><polygon fill="#181818" points="570.5656,282.3066,574.5656,292.3066,578.5656,282.3066,574.5656,286.3066" style="stroke:#181818;stroke-width:1;"/><line style="stroke:#181818;stroke-width:1;" x1="574.5656" x2="574.5656" y1="326.4395" y2="354.9941"/><polygon fill="#181818" points="570.5656,344.9941,574.5656,354.9941,578.5656,344.9941,574.5656,348.9941" style="stroke:#181818;stroke-width:1;"/><line style="stroke:#181818;stroke-width:1;" x1="353.7036" x2="353.7036" y1="495.8145" y2="515.8145"/><polygon fill="#181818" points="349.7036,505.8145,353.7036,515.8145,357.7036,505.8145,353.7036,509.8145" style="stroke:#181818;stroke-width:1;"/><line style="stroke:#181818;stroke-width:1;" x1="353.7036" x2="353.7036" y1="549.9473" y2="586.1572"/><polygon fill="#181818" points="349.7036,576.1572,353.7036,586.1572,357.7036,576.1572,353.7036,580.1572" style="stroke:#181818;stroke-width:1;"/><line style="stroke:#181818;stroke-width:1;" x1="353.7036" x2="353.7036" y1="620.29" y2="666.5"/><polygon fill="#181818" points="349.7036,656.5,353.7036,666.5,357.7036,656.5,353.7036,660.5" style="stroke:#181818;stroke-width:1;"/><line style="stroke:#181818;stroke-width:1;" x1="353.7036" x2="353.7036" y1="700.6328" y2="720.6328"/><polygon fill="#181818" points="349.7036,710.6328,353.7036,720.6328,357.7036,710.6328,353.7036,714.6328" style="stroke:#181818;stroke-width:1;"/><line style="stroke:#181818;stroke-width:1;" x1="353.7036" x2="353.7036" y1="754.7656" y2="774.7656"/><polygon fill="#181818" points="349.7036,764.7656,353.7036,774.7656,357.7036,764.7656,353.7036,768.7656" style="stroke:#181818;stroke-width:1;"/><line style="stroke:#181818;stroke-width:1;" x1="353.7036" x2="353.7036" y1="808.8984" y2="845.1084"/><polygon fill="#181818" points="349.7036,835.1084,353.7036,845.1084,357.7036,835.1084,353.7036,839.1084" style="stroke:#181818;stroke-width:1;"/><line style="stroke:#181818;stroke-width:1;" x1="353.7036" x2="353.7036" y1="879.2412" y2="925.4512"/><polygon fill="#181818" points="349.7036,915.4512,353.7036,925.4512,357.7036,915.4512,353.7036,919.4512" style="stroke:#181818;stroke-width:1;"/><line style="stroke:#181818;stroke-width:1;" x1="353.7036" x2="353.7036" y1="959.584" y2="979.584"/><polygon fill="#181818" points="349.7036,969.584,353.7036,979.584,357.7036,969.584,353.7036,973.584" style="stroke:#181818;stroke-width:1;"/><line style="stroke:#181818;stroke-width:1;" x1="194.8438" x2="194.8438" y1="1101.8496" y2="1121.8496"/><polygon fill="#181818" points="190.8438,1111.8496,194.8438,1121.8496,198.8438,1111.8496,194.8438,1115.8496" style="stroke:#181818;stroke-width:1;"/><line style="stroke:#181818;stroke-width:1;" x1="194.8438" x2="194.8438" y1="1155.9824" y2="1175.9824"/><polygon fill="#181818" points="190.8438,1165.9824,194.8438,1175.9824,198.8438,1165.9824,194.8438,1169.9824" style="stroke:#181818;stroke-width:1;"/><line style="stroke:#181818;stroke-width:1;" x1="94.0137" x2="94.0137" y1="1298.248" y2="1318.248"/><polygon fill="#181818" points="90.0137,1308.248,94.0137,1318.248,98.0137,1308.248,94.0137,1312.248" style="stroke:#181818;stroke-width:1;"/><line style="stroke:#181818;stroke-width:1;" x1="130.8542" x2="94.0137" y1="1242.1152" y2="1242.1152"/><line style="stroke:#181818;stroke-width:1;" x1="94.0137" x2="94.0137" y1="1242.1152" y2="1264.1152"/><polygon fill="#181818" points="90.0137,1254.1152,94.0137,1264.1152,98.0137,1254.1152,94.0137,1258.1152" style="stroke:#181818;stroke-width:1;"/><line style="stroke:#181818;stroke-width:1;" x1="258.8333" x2="295.6738" y1="1242.1152" y2="1242.1152"/><line style="stroke:#181818;stroke-width:1;" x1="295.6738" x2="295.6738" y1="1242.1152" y2="1264.1152"/><polygon fill="#181818" points="291.6738,1254.1152,295.6738,1264.1152,299.6738,1254.1152,295.6738,1258.1152" style="stroke:#181818;stroke-width:1;"/><line style="stroke:#181818;stroke-width:1;" x1="94.0137" x2="94.0137" y1="1352.3809" y2="1370.3809"/><line style="stroke:#181818;stroke-width:1;" x1="94.0137" x2="182.8438" y1="1370.3809" y2="1370.3809"/><polygon fill="#181818" points="172.8438,1366.3809,182.8438,1370.3809,172.8438,1374.3809,176.8438,1370.3809" style="stroke:#181818;stroke-width:1;"/><line style="stroke:#181818;stroke-width:1;" x1="295.6738" x2="295.6738" y1="1298.248" y2="1370.3809"/><line style="stroke:#181818;stroke-width:1;" x1="295.6738" x2="206.8438" y1="1370.3809" y2="1370.3809"/><polygon fill="#181818" points="216.8438,1366.3809,206.8438,1370.3809,216.8438,1374.3809,212.8438,1370.3809" style="stroke:#181818;stroke-width:1;"/><line style="stroke:#181818;stroke-width:1;" x1="194.8438" x2="194.8438" y1="1210.1152" y2="1230.1152"/><polygon fill="#181818" points="190.8438,1220.1152,194.8438,1230.1152,198.8438,1220.1152,194.8438,1224.1152" style="stroke:#181818;stroke-width:1;"/><line style="stroke:#181818;stroke-width:1;" x1="277.7983" x2="194.8438" y1="1045.7168" y2="1045.7168"/><line style="stroke:#181818;stroke-width:1;" x1="194.8438" x2="194.8438" y1="1045.7168" y2="1067.7168"/><polygon fill="#181818" points="190.8438,1057.7168,194.8438,1067.7168,198.8438,1057.7168,194.8438,1061.7168" style="stroke:#181818;stroke-width:1;"/><line style="stroke:#181818;stroke-width:1;" x1="429.6089" x2="512.5635" y1="1045.7168" y2="1045.7168"/><line style="stroke:#181818;stroke-width:1;" x1="512.5635" x2="512.5635" y1="1045.7168" y2="1067.7168"/><polygon fill="#181818" points="508.5635,1057.7168,512.5635,1067.7168,516.5635,1057.7168,512.5635,1061.7168" style="stroke:#181818;stroke-width:1;"/><line style="stroke:#181818;stroke-width:1;" x1="194.8438" x2="194.8438" y1="1382.3809" y2="1400.3809"/><line style="stroke:#181818;stroke-width:1;" x1="194.8438" x2="341.7036" y1="1400.3809" y2="1400.3809"/><polygon fill="#181818" points="331.7036,1396.3809,341.7036,1400.3809,331.7036,1404.3809,335.7036,1400.3809" style="stroke:#181818;stroke-width:1;"/><line style="stroke:#181818;stroke-width:1;" x1="512.5635" x2="512.5635" y1="1101.8496" y2="1400.3809"/><line style="stroke:#181818;stroke-width:1;" x1="512.5635" x2="365.7036" y1="1400.3809" y2="1400.3809"/><polygon fill="#181818" points="375.7036,1396.3809,365.7036,1400.3809,375.7036,1404.3809,371.7036,1400.3809" style="stroke:#181818;stroke-width:1;"/><line style="stroke:#181818;stroke-width:1;" x1="353.7036" x2="353.7036" y1="1013.7168" y2="1033.7168"/><polygon fill="#181818" points="349.7036,1023.7168,353.7036,1033.7168,357.7036,1023.7168,353.7036,1027.7168" style="stroke:#181818;stroke-width:1;"/><line style="stroke:#181818;stroke-width:1;" x1="353.7036" x2="353.7036" y1="1412.3809" y2="1432.3809"/><polygon fill="#181818" points="349.7036,1422.3809,353.7036,1432.3809,357.7036,1422.3809,353.7036,1426.3809" style="stroke:#181818;stroke-width:1;"/><line style="stroke:#181818;stroke-width:1;" x1="574.6873" x2="574.6873" y1="1642.7793" y2="1662.7793"/><polygon fill="#181818" points="570.6873,1652.7793,574.6873,1662.7793,578.6873,1652.7793,574.6873,1656.7793" style="stroke:#181818;stroke-width:1;"/><line style="stroke:#181818;stroke-width:1;" x1="435.1494" x2="391.2351" y1="1586.6465" y2="1586.6465"/><line style="stroke:#181818;stroke-width:1;" x1="391.2351" x2="391.2351" y1="1586.6465" y2="1608.6465"/><polygon fill="#181818" points="387.2351,1598.6465,391.2351,1608.6465,395.2351,1598.6465,391.2351,1602.6465" style="stroke:#181818;stroke-width:1;"/><line style="stroke:#181818;stroke-width:1;" x1="530.7729" x2="574.6873" y1="1586.6465" y2="1586.6465"/><line style="stroke:#181818;stroke-width:1;" x1="574.6873" x2="574.6873" y1="1586.6465" y2="1608.6465"/><polygon fill="#181818" points="570.6873,1598.6465,574.6873,1608.6465,578.6873,1598.6465,574.6873,1602.6465" style="stroke:#181818;stroke-width:1;"/><line style="stroke:#181818;stroke-width:1;" x1="391.2351" x2="391.2351" y1="1642.7793" y2="1714.9121"/><line style="stroke:#181818;stroke-width:1;" x1="391.2351" x2="470.9612" y1="1714.9121" y2="1714.9121"/><polygon fill="#181818" points="460.9612,1710.9121,470.9612,1714.9121,460.9612,1718.9121,464.9612,1714.9121" style="stroke:#181818;stroke-width:1;"/><line style="stroke:#181818;stroke-width:1;" x1="574.6873" x2="574.6873" y1="1696.9121" y2="1714.9121"/><line style="stroke:#181818;stroke-width:1;" x1="574.6873" x2="494.9612" y1="1714.9121" y2="1714.9121"/><polygon fill="#181818" points="504.9612,1710.9121,494.9612,1714.9121,504.9612,1718.9121,500.9612,1714.9121" style="stroke:#181818;stroke-width:1;"/><line style="stroke:#181818;stroke-width:1;" x1="482.9612" x2="482.9612" y1="1554.6465" y2="1574.6465"/><polygon fill="#181818" points="478.9612,1564.6465,482.9612,1574.6465,486.9612,1564.6465,482.9612,1568.6465" style="stroke:#181818;stroke-width:1;"/><line style="stroke:#181818;stroke-width:1;" x1="243.8342" x2="224.446" y1="1498.5137" y2="1498.5137"/><line style="stroke:#181818;stroke-width:1;" x1="224.446" x2="224.446" y1="1498.5137" y2="1520.5137"/><polygon fill="#181818" points="220.446,1510.5137,224.446,1520.5137,228.446,1510.5137,224.446,1514.5137" style="stroke:#181818;stroke-width:1;"/><line style="stroke:#181818;stroke-width:1;" x1="463.573" x2="482.9612" y1="1498.5137" y2="1498.5137"/><line style="stroke:#181818;stroke-width:1;" x1="482.9612" x2="482.9612" y1="1498.5137" y2="1520.5137"/><polygon fill="#181818" points="478.9612,1510.5137,482.9612,1520.5137,486.9612,1510.5137,482.9612,1514.5137" style="stroke:#181818;stroke-width:1;"/><line style="stroke:#181818;stroke-width:1;" x1="224.446" x2="224.446" y1="1554.6465" y2="1744.9121"/><line style="stroke:#181818;stroke-width:1;" x1="224.446" x2="341.7036" y1="1744.9121" y2="1744.9121"/><polygon fill="#181818" points="331.7036,1740.9121,341.7036,1744.9121,331.7036,1748.9121,335.7036,1744.9121" style="stroke:#181818;stroke-width:1;"/><line style="stroke:#181818;stroke-width:1;" x1="482.9612" x2="482.9612" y1="1726.9121" y2="1744.9121"/><line style="stroke:#181818;stroke-width:1;" x1="482.9612" x2="365.7036" y1="1744.9121" y2="1744.9121"/><polygon fill="#181818" points="375.7036,1740.9121,365.7036,1744.9121,375.7036,1748.9121,371.7036,1744.9121" style="stroke:#181818;stroke-width:1;"/><line style="stroke:#181818;stroke-width:1;" x1="353.7036" x2="353.7036" y1="1466.5137" y2="1486.5137"/><polygon fill="#181818" points="349.7036,1476.5137,353.7036,1486.5137,357.7036,1476.5137,353.7036,1480.5137" style="stroke:#181818;stroke-width:1;"/><line style="stroke:#181818;stroke-width:1;" x1="526.9015" x2="353.7036" y1="439.6816" y2="439.6816"/><line style="stroke:#181818;stroke-width:1;" x1="353.7036" x2="353.7036" y1="439.6816" y2="461.6816"/><polygon fill="#181818" points="349.7036,451.6816,353.7036,461.6816,357.7036,451.6816,353.7036,455.6816" style="stroke:#181818;stroke-width:1;"/><line style="stroke:#181818;stroke-width:1;" x1="622.2296" x2="795.4275" y1="439.6816" y2="439.6816"/><line style="stroke:#181818;stroke-width:1;" x1="795.4275" x2="795.4275" y1="439.6816" y2="461.6816"/><polygon fill="#181818" points="791.4275,451.6816,795.4275,461.6816,799.4275,451.6816,795.4275,455.6816" style="stroke:#181818;stroke-width:1;"/><line style="stroke:#181818;stroke-width:1;" x1="353.7036" x2="353.7036" y1="1756.9121" y2="1774.9121"/><line style="stroke:#181818;stroke-width:1;" x1="353.7036" x2="562.5656" y1="1774.9121" y2="1774.9121"/><polygon fill="#181818" points="552.5656,1770.9121,562.5656,1774.9121,552.5656,1778.9121,556.5656,1774.9121" style="stroke:#181818;stroke-width:1;"/><line style="stroke:#181818;stroke-width:1;" x1="795.4275" x2="795.4275" y1="495.8145" y2="1774.9121"/><line style="stroke:#181818;stroke-width:1;" x1="795.4275" x2="586.5656" y1="1774.9121" y2="1774.9121"/><polygon fill="#181818" points="596.5656,1770.9121,586.5656,1774.9121,596.5656,1778.9121,592.5656,1774.9121" style="stroke:#181818;stroke-width:1;"/><line style="stroke:#181818;stroke-width:1;" x1="574.5656" x2="574.5656" y1="389.127" y2="427.6816"/><polygon fill="#181818" points="570.5656,417.6816,574.5656,427.6816,578.5656,417.6816,574.5656,421.6816" style="stroke:#181818;stroke-width:1;"/><line style="stroke:#181818;stroke-width:1;" x1="574.5656" x2="574.5656" y1="1786.9121" y2="1815.4668"/><polygon fill="#181818" points="570.5656,1805.4668,574.5656,1815.4668,578.5656,1805.4668,574.5656,1809.4668" style="stroke:#181818;stroke-width:1;"/><line style="stroke:#181818;stroke-width:1;" x1="472.6515" x2="472.6515" y1="1956.2871" y2="1976.2871"/><polygon fill="#181818" points="468.6515,1966.2871,472.6515,1976.2871,476.6515,1966.2871,472.6515,1970.2871" style="stroke:#181818;stroke-width:1;"/><line style="stroke:#181818;stroke-width:1;" x1="676.4796" x2="676.4796" y1="1956.2871" y2="1976.2871"/><polygon fill="#181818" points="672.4796,1966.2871,676.4796,1976.2871,680.4796,1966.2871,676.4796,1970.2871" style="stroke:#181818;stroke-width:1;"/><line style="stroke:#181818;stroke-width:1;" x1="536.6608" x2="472.6515" y1="1900.1543" y2="1900.1543"/><line style="stroke:#181818;stroke-width:1;" x1="472.6515" x2="472.6515" y1="1900.1543" y2="1922.1543"/><polygon fill="#181818" points="468.6515,1912.1543,472.6515,1922.1543,476.6515,1912.1543,472.6515,1916.1543" style="stroke:#181818;stroke-width:1;"/><line style="stroke:#181818;stroke-width:1;" x1="612.4703" x2="676.4796" y1="1900.1543" y2="1900.1543"/><line style="stroke:#181818;stroke-width:1;" x1="676.4796" x2="676.4796" y1="1900.1543" y2="1922.1543"/><polygon fill="#181818" points="672.4796,1912.1543,676.4796,1922.1543,680.4796,1912.1543,676.4796,1916.1543" style="stroke:#181818;stroke-width:1;"/><line style="stroke:#181818;stroke-width:1;" x1="472.6515" x2="472.6515" y1="2010.4199" y2="2028.4199"/><line style="stroke:#181818;stroke-width:1;" x1="472.6515" x2="562.5656" y1="2028.4199" y2="2028.4199"/><polygon fill="#181818" points="552.5656,2024.4199,562.5656,2028.4199,552.5656,2032.4199,556.5656,2028.4199" style="stroke:#181818;stroke-width:1;"/><line style="stroke:#181818;stroke-width:1;" x1="676.4796" x2="676.4796" y1="2010.4199" y2="2028.4199"/><line style="stroke:#181818;stroke-width:1;" x1="676.4796" x2="586.5656" y1="2028.4199" y2="2028.4199"/><polygon fill="#181818" points="596.5656,2024.4199,586.5656,2028.4199,596.5656,2032.4199,592.5656,2028.4199" style="stroke:#181818;stroke-width:1;"/><line style="stroke:#181818;stroke-width:1;" x1="574.5656" x2="574.5656" y1="1849.5996" y2="1888.1543"/><polygon fill="#181818" points="570.5656,1878.1543,574.5656,1888.1543,578.5656,1878.1543,574.5656,1882.1543" style="stroke:#181818;stroke-width:1;"/><line style="stroke:#181818;stroke-width:1;" x1="574.5656" x2="574.5656" y1="2040.4199" y2="2076.6299"/><polygon fill="#181818" points="570.5656,2066.6299,574.5656,2076.6299,578.5656,2066.6299,574.5656,2070.6299" style="stroke:#181818;stroke-width:1;"/><line style="stroke:#181818;stroke-width:1;" x1="574.5656" x2="574.5656" y1="2110.7627" y2="2156.9727"/><polygon fill="#181818" points="570.5656,2146.9727,574.5656,2156.9727,578.5656,2146.9727,574.5656,2150.9727" style="stroke:#181818;stroke-width:1;"/><line style="stroke:#181818;stroke-width:1;" x1="574.5656" x2="574.5656" y1="2191.1055" y2="2211.1055"/><polygon fill="#181818" points="570.5656,2201.1055,574.5656,2211.1055,578.5656,2201.1055,574.5656,2205.1055" style="stroke:#181818;stroke-width:1;"/><line style="stroke:#181818;stroke-width:1;" x1="574.5656" x2="574.5656" y1="2245.2383" y2="2273.793"/><polygon fill="#181818" points="570.5656,2263.793,574.5656,2273.793,578.5656,2263.793,574.5656,2267.793" style="stroke:#181818;stroke-width:1;"/><line style="stroke:#181818;stroke-width:1;" x1="574.5656" x2="574.5656" y1="2307.9258" y2="2346.4805"/><polygon fill="#181818" points="570.5656,2336.4805,574.5656,2346.4805,578.5656,2336.4805,574.5656,2340.4805" style="stroke:#181818;stroke-width:1;"/><!--SRC=[TLPDSo8v3Btthz0nSvZDdk4mHI2PIbN8P61sKhKtqIt06xVTumzO_lrAjhjf6FQKOCdoqvFqr445JV33eV5pHuqAy4f7M9zye1RUhVlOQdk4px0WhzWEwu21gie7TA6g9YkgIHq8PZio0LRKMHUcrMGTh2DG1juqksFywcpi_dYd3Immu0OzJVdoezcZgJded5nGMrMpBwm9NRsVLiRo3wTs-r11nfGCCCSEDqgheCXFsFGPdfJpuVu5FMF7bk3kg7HJeslyfsH_K2xi6pob7-lrQ_exrwXQU8tjXbn5fW5vZp4zcow62q22c5DQHGC3u4Vdh8FvdkeFPNPNO9zDe9tZgnT-1UnCQvZLDNb_l_x-0WVKgi6WhF4PrkZXiotVJ1HhrNAD3kIobnZFwDKMxjAJ7hOsckRB9mXxCd1teiJ5X4iiaUML3CrHRPcegHY_aY61NLwQsxQDfZmY3kApbiSUMrGQWisEOhh87ug3ChMEJQxIa41kaUpml2YMTSUu6hyd2e0XOBrlsTKNwsBvDnnfunM_ePNv62vHBIH0VURC2wgj-fTT1bOoyBdjJgcKuY4HpuqeQQL-_GrWPgVFFTFYSiTx876PdWtQxZpdNCA_Py0to17h4vSXkX4rCUp_XENJ331AnK9Vssp-gRZ_Eyw8cuq12C2Ud4SPsJ43FJjn8ut2-1bmtrzNd6JSBNvmDYF7b9EWz5a5IX-A4xV_ZdmXHBejXnXTpjxNZSS1durdbF2jyozs1oqF0EuIFMnxjGp_zBjOHBwINRBVN_oRypym7HTWCfPvFW3iEcSFT0E4XEWa5VRnvJNWDj1z66c5awbJZIxYa_OiBCOESLRqAn8h3ZPS04uSzJM5YMwrhQuldwycxdB30gMndLRdMrA5fJMAMvCbPIFpd0ThMhZFFLfR4r0nyJV6wqOPtj0n6EHOFlKyDs77W5Cbhd0MmTto-os6UY_DPsF8I8RkprYMud1RT5Ai5vxRuQt_vxJJ9o4aCtDKOSy3vOEBOrRPyScw8-kxk4gB58WceYxTSSL_p-ZunScRipLH2h91pRgUb3pxLfE7T4HbfIN2LiGJ5UJqIl0V-kkGOleYzIoW7ReXnC6F8YI7dsMmE5-fO5uxIzvZl9BoOZCI5xCGyNzQtLBy0lM6sZC0JM50KD2bFCTwlrNIlesjeyXkqViBhcRDFv7nPPvo_VfTWidK5cdCowGdKIPT5jvugytxiRgWS1P5nzX_n-WoVO-yv4vb2Y4uh3-eIOOLeRU6N_iLvPCadILba285nT8IiEtIyJVTtCkt0uiIZznupm_9NwmvbissHNVYVRzGljDu0ZuSVzp03zp8jyjS4ng8tR1BhXFQXgHLwKwT2y4FvDGMbCgIL6P4JU5lx89bvwGmO_kIEqRcdXU6CCVyA3tAZuUxg_u3]--></g></svg>