<?xml version="1.0" encoding="UTF-8" standalone="no"?><svg xmlns="http://www.w3.org/2000/svg" xmlns:xlink="http://www.w3.org/1999/xlink" contentStyleType="text/css" height="2369px" preserveAspectRatio="none" style="width:987px;height:2369px;background:#FFFFFF;" version="1.1" viewBox="0 0 987 2369" width="987px" zoomAndPan="magnify"><defs/><g><rect fill="none" height="26.2969" id="_title" style="stroke:none;stroke-width:1.0;" width="409" x="287.9688" y="15"/><text fill="#000000" font-family="sans-serif" font-size="14" font-weight="bold" lengthAdjust="spacing" textLength="399" x="292.9688" y="32.9951">TransCredit New System Workflow - Desired State</text><ellipse cx="616.4375" cy="57.2969" fill="#222222" rx="10" ry="10" style="stroke:#222222;stroke-width:1.0;"/><rect fill="#F1F1F1" height="33.9688" rx="12.5" ry="12.5" style="stroke:#181818;stroke-width:0.5;" width="155" x="538.9375" y="87.2969"/><text fill="#000000" font-family="sans-serif" font-size="12" lengthAdjust="spacing" textLength="135" x="548.9375" y="108.4355">Receive Agent Report</text><rect fill="#F1F1F1" height="33.9688" rx="12.5" ry="12.5" style="stroke:#181818;stroke-width:0.5;" width="255" x="488.9375" y="141.2656"/><text fill="#000000" font-family="sans-serif" font-size="12" lengthAdjust="spacing" textLength="235" x="498.9375" y="162.4043">Store in PlateauGroup.Web Database</text><path d="M735.9375,185.2344 L735.9375,224.0664 L715.9375,228.0664 L735.9375,232.0664 L735.9375,270.8984 A0,0 0 0 0 735.9375,270.8984 L938.9375,270.8984 A0,0 0 0 0 938.9375,270.8984 L938.9375,195.2344 L928.9375,185.2344 L735.9375,185.2344 A0,0 0 0 0 735.9375,185.2344 " fill="#FEFFDD" style="stroke:#181818;stroke-width:0.5;"/><path d="M928.9375,185.2344 L928.9375,195.2344 L938.9375,195.2344 L928.9375,185.2344 " fill="#FEFFDD" style="stroke:#181818;stroke-width:0.5;"/><text fill="#000000" font-family="sans-serif" font-size="13" lengthAdjust="spacing" textLength="157" x="741.9375" y="202.3013">New Search Capabilities:</text><text fill="#000000" font-family="sans-serif" font-size="13" lengthAdjust="spacing" textLength="182" x="741.9375" y="217.4341">- First/Last Name (wildcards)</text><text fill="#000000" font-family="sans-serif" font-size="13" lengthAdjust="spacing" textLength="62" x="741.9375" y="232.5669">- Birthday</text><text fill="#000000" font-family="sans-serif" font-size="13" lengthAdjust="spacing" textLength="37" x="741.9375" y="247.6997">- SSN</text><text fill="#000000" font-family="sans-serif" font-size="13" lengthAdjust="spacing" textLength="101" x="741.9375" y="262.8325">- Claim Number</text><rect fill="#F1F1F1" height="33.9688" rx="12.5" ry="12.5" style="stroke:#181818;stroke-width:0.5;" width="199" x="516.9375" y="211.082"/><text fill="#000000" font-family="sans-serif" font-size="12" lengthAdjust="spacing" textLength="179" x="526.9375" y="232.2207">Enhanced Certificate Search</text><rect fill="#F1F1F1" height="33.9688" rx="12.5" ry="12.5" style="stroke:#181818;stroke-width:0.5;" width="154" x="539.4375" y="290.8984"/><text fill="#000000" font-family="sans-serif" font-size="12" lengthAdjust="spacing" textLength="134" x="549.4375" y="312.0371">Input Certificate Data</text><path d="M739.9375,334.8672 L739.9375,366.1328 L719.9375,370.1328 L739.9375,374.1328 L739.9375,405.3984 A0,0 0 0 0 739.9375,405.3984 L935.9375,405.3984 A0,0 0 0 0 935.9375,405.3984 L935.9375,344.8672 L925.9375,334.8672 L739.9375,334.8672 A0,0 0 0 0 739.9375,334.8672 " fill="#FEFFDD" style="stroke:#181818;stroke-width:0.5;"/><path d="M925.9375,334.8672 L925.9375,344.8672 L935.9375,344.8672 L925.9375,334.8672 " fill="#FEFFDD" style="stroke:#181818;stroke-width:0.5;"/><text fill="#000000" font-family="sans-serif" font-size="13" lengthAdjust="spacing" textLength="155" x="745.9375" y="351.9341">Integrated Error Checks:</text><text fill="#000000" font-family="sans-serif" font-size="13" lengthAdjust="spacing" textLength="175" x="745.9375" y="367.0669">- All Access/SQL validations</text><text fill="#000000" font-family="sans-serif" font-size="13" lengthAdjust="spacing" textLength="139" x="745.9375" y="382.1997">- Certificate validation</text><text fill="#000000" font-family="sans-serif" font-size="13" lengthAdjust="spacing" textLength="151" x="745.9375" y="397.3325">- Agent limit verification</text><rect fill="#F1F1F1" height="33.9688" rx="12.5" ry="12.5" style="stroke:#181818;stroke-width:0.5;" width="207" x="512.9375" y="353.1484"/><text fill="#000000" font-family="sans-serif" font-size="12" lengthAdjust="spacing" textLength="187" x="522.9375" y="374.2871">Run Enhanced Error Checking</text><polygon fill="#F1F1F1" points="577.4375,425.3984,655.4375,425.3984,667.4375,437.3984,655.4375,449.3984,577.4375,449.3984,565.4375,437.3984,577.4375,425.3984" style="stroke:#181818;stroke-width:0.5;"/><text fill="#000000" font-family="sans-serif" font-size="11" lengthAdjust="spacing" textLength="78" x="577.4375" y="441.2065">Errors found?</text><text fill="#000000" font-family="sans-serif" font-size="11" lengthAdjust="spacing" textLength="20" x="545.4375" y="434.8042">yes</text><text fill="#000000" font-family="sans-serif" font-size="11" lengthAdjust="spacing" textLength="14" x="667.4375" y="434.8042">no</text><rect fill="#F1F1F1" height="33.9688" rx="12.5" ry="12.5" style="stroke:#181818;stroke-width:0.5;" width="175" x="294.875" y="459.3984"/><text fill="#000000" font-family="sans-serif" font-size="12" lengthAdjust="spacing" textLength="155" x="304.875" y="480.5371">Create CertError records</text><rect fill="#F1F1F1" height="33.9688" rx="12.5" ry="12.5" style="stroke:#181818;stroke-width:0.5;" width="220" x="272.375" y="513.3672"/><text fill="#000000" font-family="sans-serif" font-size="12" lengthAdjust="spacing" textLength="200" x="282.375" y="534.5059">Generate Agent Communication</text><path d="M475.875,557.3359 L475.875,596.168 L455.875,600.168 L475.875,604.168 L475.875,643 A0,0 0 0 0 475.875,643 L673.875,643 A0,0 0 0 0 673.875,643 L673.875,567.3359 L663.875,557.3359 L475.875,557.3359 A0,0 0 0 0 475.875,557.3359 " fill="#FEFFDD" style="stroke:#181818;stroke-width:0.5;"/><path d="M663.875,557.3359 L663.875,567.3359 L673.875,567.3359 L663.875,557.3359 " fill="#FEFFDD" style="stroke:#181818;stroke-width:0.5;"/><text fill="#000000" font-family="sans-serif" font-size="13" lengthAdjust="spacing" textLength="95" x="481.875" y="574.4028">Email includes:</text><text fill="#000000" font-family="sans-serif" font-size="13" lengthAdjust="spacing" textLength="141" x="481.875" y="589.5356">- AgentReportEmail ID</text><text fill="#000000" font-family="sans-serif" font-size="13" lengthAdjust="spacing" textLength="177" x="481.875" y="604.6685">- Spreadsheet attachments</text><text fill="#000000" font-family="sans-serif" font-size="13" lengthAdjust="spacing" textLength="117" x="481.875" y="619.8013">- DMZ website link</text><text fill="#000000" font-family="sans-serif" font-size="13" lengthAdjust="spacing" textLength="167" x="481.875" y="634.9341">- Specific certificates to fix</text><rect fill="#F1F1F1" height="33.9688" rx="12.5" ry="12.5" style="stroke:#181818;stroke-width:0.5;" width="147" x="308.875" y="583.1836"/><text fill="#000000" font-family="sans-serif" font-size="12" lengthAdjust="spacing" textLength="127" x="318.875" y="604.3223">Send Email to Agent</text><rect fill="#F1F1F1" height="33.9688" rx="12.5" ry="12.5" style="stroke:#181818;stroke-width:0.5;" width="198" x="283.375" y="663"/><text fill="#000000" font-family="sans-serif" font-size="12" lengthAdjust="spacing" textLength="178" x="293.375" y="684.1387">Copy Data to DMZ Database</text><rect fill="#F1F1F1" height="33.9688" rx="12.5" ry="12.5" style="stroke:#181818;stroke-width:0.5;" width="215" x="274.875" y="716.9688"/><text fill="#000000" font-family="sans-serif" font-size="12" lengthAdjust="spacing" textLength="195" x="284.875" y="738.1074">Store AgentReportEmail record</text><rect fill="#F1F1F1" height="33.9688" rx="12.5" ry="12.5" style="stroke:#181818;stroke-width:0.5;" width="150" x="307.375" y="770.9375"/><text fill="#000000" font-family="sans-serif" font-size="12" lengthAdjust="spacing" textLength="130" x="317.375" y="792.0762">Agent receives email</text><path d="M502.875,814.9063 L502.875,853.7383 L482.875,857.7383 L502.875,861.7383 L502.875,900.5703 A0,0 0 0 0 502.875,900.5703 L697.875,900.5703 A0,0 0 0 0 697.875,900.5703 L697.875,824.9063 L687.875,814.9063 L502.875,814.9063 A0,0 0 0 0 502.875,814.9063 " fill="#FEFFDD" style="stroke:#181818;stroke-width:0.5;"/><path d="M687.875,814.9063 L687.875,824.9063 L697.875,824.9063 L687.875,814.9063 " fill="#FEFFDD" style="stroke:#181818;stroke-width:0.5;"/><text fill="#000000" font-family="sans-serif" font-size="13" lengthAdjust="spacing" textLength="95" x="508.875" y="831.9731">DMZ Features:</text><text fill="#000000" font-family="sans-serif" font-size="13" lengthAdjust="spacing" textLength="174" x="508.875" y="847.106">- Auth0 MFA authentication</text><text fill="#000000" font-family="sans-serif" font-size="13" lengthAdjust="spacing" textLength="143" x="508.875" y="862.2388">- View pending reports</text><text fill="#000000" font-family="sans-serif" font-size="13" lengthAdjust="spacing" textLength="107" x="508.875" y="877.3716">- Edit certificates</text><text fill="#000000" font-family="sans-serif" font-size="13" lengthAdjust="spacing" textLength="130" x="508.875" y="892.5044">- Submit corrections</text><rect fill="#F1F1F1" height="33.9688" rx="12.5" ry="12.5" style="stroke:#181818;stroke-width:0.5;" width="201" x="281.875" y="840.7539"/><text fill="#000000" font-family="sans-serif" font-size="12" lengthAdjust="spacing" textLength="181" x="291.875" y="861.8926">Agent logs into DMZ Website</text><rect fill="#F1F1F1" height="33.9688" rx="12.5" ry="12.5" style="stroke:#181818;stroke-width:0.5;" width="177" x="293.875" y="920.5703"/><text fill="#000000" font-family="sans-serif" font-size="12" lengthAdjust="spacing" textLength="157" x="303.875" y="941.709">Agent makes corrections</text><rect fill="#F1F1F1" height="33.9688" rx="12.5" ry="12.5" style="stroke:#181818;stroke-width:0.5;" width="214" x="275.375" y="974.5391"/><text fill="#000000" font-family="sans-serif" font-size="12" lengthAdjust="spacing" textLength="194" x="285.375" y="995.6777">DMZ system validates changes</text><polygon fill="#F1F1F1" points="314.375,1028.5078,450.375,1028.5078,462.375,1040.5078,450.375,1052.5078,314.375,1052.5078,302.375,1040.5078,314.375,1028.5078" style="stroke:#181818;stroke-width:0.5;"/><text fill="#000000" font-family="sans-serif" font-size="11" lengthAdjust="spacing" textLength="136" x="314.375" y="1044.3159">Agent corrections valid?</text><text fill="#000000" font-family="sans-serif" font-size="11" lengthAdjust="spacing" textLength="20" x="282.375" y="1037.9136">yes</text><text fill="#000000" font-family="sans-serif" font-size="11" lengthAdjust="spacing" textLength="14" x="462.375" y="1037.9136">no</text><rect fill="#F1F1F1" height="33.9688" rx="12.5" ry="12.5" style="stroke:#181818;stroke-width:0.5;" width="167" x="128.75" y="1062.5078"/><text fill="#000000" font-family="sans-serif" font-size="12" lengthAdjust="spacing" textLength="147" x="138.75" y="1083.6465">Insert OpsLog message</text><rect fill="#F1F1F1" height="33.9688" rx="12.5" ry="12.5" style="stroke:#181818;stroke-width:0.5;" width="208" x="108.25" y="1116.4766"/><text fill="#000000" font-family="sans-serif" font-size="12" lengthAdjust="spacing" textLength="188" x="118.25" y="1137.6152">Notify PlateauGroup.Web user</text><rect fill="#F1F1F1" height="33.9688" rx="12.5" ry="12.5" style="stroke:#181818;stroke-width:0.5;" width="157" x="133.75" y="1170.4453"/><text fill="#000000" font-family="sans-serif" font-size="12" lengthAdjust="spacing" textLength="137" x="143.75" y="1191.584">User reviews changes</text><polygon fill="#F1F1F1" points="155.75,1224.4141,268.75,1224.4141,280.75,1236.4141,268.75,1248.4141,155.75,1248.4141,143.75,1236.4141,155.75,1224.4141" style="stroke:#181818;stroke-width:0.5;"/><text fill="#000000" font-family="sans-serif" font-size="11" lengthAdjust="spacing" textLength="113" x="155.75" y="1240.2222">Changes approved?</text><text fill="#000000" font-family="sans-serif" font-size="11" lengthAdjust="spacing" textLength="20" x="123.75" y="1233.8198">yes</text><text fill="#000000" font-family="sans-serif" font-size="11" lengthAdjust="spacing" textLength="14" x="280.75" y="1233.8198">no</text><rect fill="#F1F1F1" height="33.9688" rx="12.5" ry="12.5" style="stroke:#181818;stroke-width:0.5;" width="184" x="11" y="1258.4141"/><text fill="#000000" font-family="sans-serif" font-size="12" lengthAdjust="spacing" textLength="164" x="21" y="1279.5527">Update apsPlateau tables</text><rect fill="#F1F1F1" height="33.9688" rx="12.5" ry="12.5" style="stroke:#181818;stroke-width:0.5;" width="139" x="33.5" y="1312.3828"/><text fill="#000000" font-family="sans-serif" font-size="12" lengthAdjust="spacing" textLength="119" x="43.5" y="1333.5215">Sync DMZ changes</text><rect fill="#F1F1F1" height="33.9688" rx="12.5" ry="12.5" style="stroke:#181818;stroke-width:0.5;" width="213" x="215" y="1258.4141"/><text fill="#000000" font-family="sans-serif" font-size="12" lengthAdjust="spacing" textLength="193" x="225" y="1279.5527">Request additional corrections</text><polygon fill="#F1F1F1" points="212.25,1352.3516,224.25,1364.3516,212.25,1376.3516,200.25,1364.3516,212.25,1352.3516" style="stroke:#181818;stroke-width:0.5;"/><rect fill="#F1F1F1" height="33.9688" rx="12.5" ry="12.5" style="stroke:#181818;stroke-width:0.5;" width="189" x="458" y="1062.5078"/><text fill="#000000" font-family="sans-serif" font-size="12" lengthAdjust="spacing" textLength="169" x="468" y="1083.6465">Request agent to fix errors</text><polygon fill="#F1F1F1" points="382.375,1382.3516,394.375,1394.3516,382.375,1406.3516,370.375,1394.3516,382.375,1382.3516" style="stroke:#181818;stroke-width:0.5;"/><rect fill="#F1F1F1" height="33.9688" rx="12.5" ry="12.5" style="stroke:#181818;stroke-width:0.5;" width="159" x="302.875" y="1426.3516"/><text fill="#000000" font-family="sans-serif" font-size="12" lengthAdjust="spacing" textLength="139" x="312.875" y="1447.4902">Monitor Inbound Email</text><polygon fill="#F1F1F1" points="278.375,1480.3203,486.375,1480.3203,498.375,1492.3203,486.375,1504.3203,278.375,1504.3203,266.375,1492.3203,278.375,1480.3203" style="stroke:#181818;stroke-width:0.5;"/><text fill="#000000" font-family="sans-serif" font-size="11" lengthAdjust="spacing" textLength="208" x="278.375" y="1496.1284">Email contains AgentReportEmail ID?</text><text fill="#000000" font-family="sans-serif" font-size="11" lengthAdjust="spacing" textLength="20" x="246.375" y="1489.7261">yes</text><text fill="#000000" font-family="sans-serif" font-size="11" lengthAdjust="spacing" textLength="14" x="498.375" y="1489.7261">no</text><rect fill="#F1F1F1" height="33.9688" rx="12.5" ry="12.5" style="stroke:#181818;stroke-width:0.5;" width="184" x="152.5" y="1514.3203"/><text fill="#000000" font-family="sans-serif" font-size="12" lengthAdjust="spacing" textLength="164" x="162.5" y="1535.459">Parse and store response</text><rect fill="#F1F1F1" height="33.9688" rx="12.5" ry="12.5" style="stroke:#181818;stroke-width:0.5;" width="249" x="395.75" y="1514.3203"/><text fill="#000000" font-family="sans-serif" font-size="12" lengthAdjust="spacing" textLength="229" x="405.75" y="1535.459">Search for matching outbound email</text><polygon fill="#F1F1F1" points="482.75,1568.2891,557.75,1568.2891,569.75,1580.2891,557.75,1592.2891,482.75,1592.2891,470.75,1580.2891,482.75,1568.2891" style="stroke:#181818;stroke-width:0.5;"/><text fill="#000000" font-family="sans-serif" font-size="11" lengthAdjust="spacing" textLength="75" x="482.75" y="1584.0972">Match found?</text><text fill="#000000" font-family="sans-serif" font-size="11" lengthAdjust="spacing" textLength="20" x="450.75" y="1577.6948">yes</text><text fill="#000000" font-family="sans-serif" font-size="11" lengthAdjust="spacing" textLength="14" x="569.75" y="1577.6948">no</text><rect fill="#F1F1F1" height="33.9688" rx="12.5" ry="12.5" style="stroke:#181818;stroke-width:0.5;" width="114" x="366.5" y="1602.2891"/><text fill="#000000" font-family="sans-serif" font-size="12" lengthAdjust="spacing" textLength="94" x="376.5" y="1623.4277">Link responses</text><rect fill="#F1F1F1" height="33.9688" rx="12.5" ry="12.5" style="stroke:#181818;stroke-width:0.5;" width="218" x="508" y="1602.2891"/><text fill="#000000" font-family="sans-serif" font-size="12" lengthAdjust="spacing" textLength="198" x="518" y="1623.4277">Reply to agent with instructions</text><rect fill="#F1F1F1" height="33.9688" rx="12.5" ry="12.5" style="stroke:#181818;stroke-width:0.5;" width="233" x="500.5" y="1656.2578"/><text fill="#000000" font-family="sans-serif" font-size="12" lengthAdjust="spacing" textLength="213" x="510.5" y="1677.3965">Forward to user for manual review</text><polygon fill="#F1F1F1" points="520.25,1696.2266,532.25,1708.2266,520.25,1720.2266,508.25,1708.2266,520.25,1696.2266" style="stroke:#181818;stroke-width:0.5;"/><polygon fill="#F1F1F1" points="382.375,1726.2266,394.375,1738.2266,382.375,1750.2266,370.375,1738.2266,382.375,1726.2266" style="stroke:#181818;stroke-width:0.5;"/><rect fill="#F1F1F1" height="33.9688" rx="12.5" ry="12.5" style="stroke:#181818;stroke-width:0.5;" width="154" x="773.5" y="459.3984"/><text fill="#000000" font-family="sans-serif" font-size="12" lengthAdjust="spacing" textLength="134" x="783.5" y="480.5371">Proceed to balancing</text><polygon fill="#F1F1F1" points="616.4375,1756.2266,628.4375,1768.2266,616.4375,1780.2266,604.4375,1768.2266,616.4375,1756.2266" style="stroke:#181818;stroke-width:0.5;"/><path d="M745.9375,1790.2266 L745.9375,1821.4922 L725.9375,1825.4922 L745.9375,1829.4922 L745.9375,1860.7578 A0,0 0 0 0 745.9375,1860.7578 L975.9375,1860.7578 A0,0 0 0 0 975.9375,1860.7578 L975.9375,1800.2266 L965.9375,1790.2266 L745.9375,1790.2266 A0,0 0 0 0 745.9375,1790.2266 " fill="#FEFFDD" style="stroke:#181818;stroke-width:0.5;"/><path d="M965.9375,1790.2266 L965.9375,1800.2266 L975.9375,1800.2266 L965.9375,1790.2266 " fill="#FEFFDD" style="stroke:#181818;stroke-width:0.5;"/><text fill="#000000" font-family="sans-serif" font-size="13" lengthAdjust="spacing" textLength="120" x="751.9375" y="1807.2935">Balancing Process:</text><text fill="#000000" font-family="sans-serif" font-size="13" lengthAdjust="spacing" textLength="209" x="751.9375" y="1822.4263">- Compare Report vs Remittance</text><text fill="#000000" font-family="sans-serif" font-size="13" lengthAdjust="spacing" textLength="187" x="751.9375" y="1837.5591">- Validate against CertMaster</text><text fill="#000000" font-family="sans-serif" font-size="13" lengthAdjust="spacing" textLength="152" x="751.9375" y="1852.6919">- Financial reconciliation</text><rect fill="#F1F1F1" height="33.9688" rx="12.5" ry="12.5" style="stroke:#181818;stroke-width:0.5;" width="219" x="506.9375" y="1808.5078"/><text fill="#000000" font-family="sans-serif" font-size="12" lengthAdjust="spacing" textLength="199" x="516.9375" y="1829.6465">Balance Report and Remittance</text><polygon fill="#F1F1F1" points="587.4375,1880.7578,645.4375,1880.7578,657.4375,1892.7578,645.4375,1904.7578,587.4375,1904.7578,575.4375,1892.7578,587.4375,1880.7578" style="stroke:#181818;stroke-width:0.5;"/><text fill="#000000" font-family="sans-serif" font-size="11" lengthAdjust="spacing" textLength="58" x="587.4375" y="1896.5659">Balanced?</text><text fill="#000000" font-family="sans-serif" font-size="11" lengthAdjust="spacing" textLength="20" x="555.4375" y="1890.1636">yes</text><text fill="#000000" font-family="sans-serif" font-size="11" lengthAdjust="spacing" textLength="14" x="657.4375" y="1890.1636">no</text><rect fill="#F1F1F1" height="33.9688" rx="12.5" ry="12.5" style="stroke:#181818;stroke-width:0.5;" width="198" x="408.1875" y="1914.7578"/><text fill="#000000" font-family="sans-serif" font-size="12" lengthAdjust="spacing" textLength="178" x="418.1875" y="1935.8965">Complete Report Processing</text><rect fill="#F1F1F1" height="33.9688" rx="12.5" ry="12.5" style="stroke:#181818;stroke-width:0.5;" width="208" x="403.1875" y="1968.7266"/><text fill="#000000" font-family="sans-serif" font-size="12" lengthAdjust="spacing" textLength="188" x="413.1875" y="1989.8652">Generate final documentation</text><rect fill="#F1F1F1" height="33.9688" rx="12.5" ry="12.5" style="stroke:#181818;stroke-width:0.5;" width="120" x="665.6875" y="1914.7578"/><text fill="#000000" font-family="sans-serif" font-size="12" lengthAdjust="spacing" textLength="100" x="675.6875" y="1935.8965">Adjust balances</text><rect fill="#F1F1F1" height="33.9688" rx="12.5" ry="12.5" style="stroke:#181818;stroke-width:0.5;" width="189" x="631.1875" y="1968.7266"/><text fill="#000000" font-family="sans-serif" font-size="12" lengthAdjust="spacing" textLength="169" x="641.1875" y="1989.8652">Create adjustment records</text><polygon fill="#F1F1F1" points="616.4375,2008.6953,628.4375,2020.6953,616.4375,2032.6953,604.4375,2020.6953,616.4375,2008.6953" style="stroke:#181818;stroke-width:0.5;"/><path d="M729.9375,2042.6953 L729.9375,2081.5273 L709.9375,2085.5273 L729.9375,2089.5273 L729.9375,2128.3594 A0,0 0 0 0 729.9375,2128.3594 L897.9375,2128.3594 A0,0 0 0 0 897.9375,2128.3594 L897.9375,2052.6953 L887.9375,2042.6953 L729.9375,2042.6953 A0,0 0 0 0 729.9375,2042.6953 " fill="#FEFFDD" style="stroke:#181818;stroke-width:0.5;"/><path d="M887.9375,2042.6953 L887.9375,2052.6953 L897.9375,2052.6953 L887.9375,2042.6953 " fill="#FEFFDD" style="stroke:#181818;stroke-width:0.5;"/><text fill="#000000" font-family="sans-serif" font-size="13" lengthAdjust="spacing" textLength="91" x="735.9375" y="2059.7622">Audit Logging:</text><text fill="#000000" font-family="sans-serif" font-size="13" lengthAdjust="spacing" textLength="147" x="735.9375" y="2074.895">- Every change tracked</text><text fill="#000000" font-family="sans-serif" font-size="13" lengthAdjust="spacing" textLength="113" x="735.9375" y="2090.0278">- Reason required</text><text fill="#000000" font-family="sans-serif" font-size="13" lengthAdjust="spacing" textLength="141" x="735.9375" y="2105.1606">- User and timestamp</text><text fill="#000000" font-family="sans-serif" font-size="13" lengthAdjust="spacing" textLength="106" x="735.9375" y="2120.2935">- Old/New values</text><rect fill="#F1F1F1" height="33.9688" rx="12.5" ry="12.5" style="stroke:#181818;stroke-width:0.5;" width="187" x="522.9375" y="2068.543"/><text fill="#000000" font-family="sans-serif" font-size="12" lengthAdjust="spacing" textLength="167" x="532.9375" y="2089.6816">Log All Certificate Changes</text><rect fill="#F1F1F1" height="33.9688" rx="12.5" ry="12.5" style="stroke:#181818;stroke-width:0.5;" width="240" x="496.4375" y="2148.3594"/><text fill="#000000" font-family="sans-serif" font-size="12" lengthAdjust="spacing" textLength="220" x="506.4375" y="2169.498">Generate Communication Summary</text><rect fill="#F1F1F1" height="33.9688" rx="12.5" ry="12.5" style="stroke:#181818;stroke-width:0.5;" width="198" x="517.4375" y="2202.3281"/><text fill="#000000" font-family="sans-serif" font-size="12" lengthAdjust="spacing" textLength="178" x="527.4375" y="2223.4668">Display on Agent Report Tab</text><path d="M706.9375,2246.2969 L706.9375,2277.5625 L686.9375,2281.5625 L706.9375,2285.5625 L706.9375,2316.8281 A0,0 0 0 0 706.9375,2316.8281 L932.9375,2316.8281 A0,0 0 0 0 932.9375,2316.8281 L932.9375,2256.2969 L922.9375,2246.2969 L706.9375,2246.2969 A0,0 0 0 0 706.9375,2246.2969 " fill="#FEFFDD" style="stroke:#181818;stroke-width:0.5;"/><path d="M922.9375,2246.2969 L922.9375,2256.2969 L932.9375,2256.2969 L922.9375,2246.2969 " fill="#FEFFDD" style="stroke:#181818;stroke-width:0.5;"/><text fill="#000000" font-family="sans-serif" font-size="13" lengthAdjust="spacing" textLength="153" x="712.9375" y="2263.3638">After report completion:</text><text fill="#000000" font-family="sans-serif" font-size="13" lengthAdjust="spacing" textLength="205" x="712.9375" y="2278.4966">- Delete DMZ certificate records</text><text fill="#000000" font-family="sans-serif" font-size="13" lengthAdjust="spacing" textLength="187" x="712.9375" y="2293.6294">- Delete agent report records</text><text fill="#000000" font-family="sans-serif" font-size="13" lengthAdjust="spacing" textLength="127" x="712.9375" y="2308.7622">- Maintain audit trail</text><rect fill="#F1F1F1" height="33.9688" rx="12.5" ry="12.5" style="stroke:#181818;stroke-width:0.5;" width="141" x="545.9375" y="2264.5781"/><text fill="#000000" font-family="sans-serif" font-size="12" lengthAdjust="spacing" textLength="121" x="555.9375" y="2285.7168">Clean up DMZ Data</text><ellipse cx="616.4375" cy="2347.8281" fill="none" rx="11" ry="11" style="stroke:#222222;stroke-width:1.0;"/><ellipse cx="616.4375" cy="2347.8281" fill="#222222" rx="6" ry="6" style="stroke:#111111;stroke-width:1.0;"/><line style="stroke:#181818;stroke-width:1.0;" x1="616.4375" x2="616.4375" y1="67.2969" y2="87.2969"/><polygon fill="#181818" points="612.4375,77.2969,616.4375,87.2969,620.4375,77.2969,616.4375,81.2969" style="stroke:#181818;stroke-width:1.0;"/><line style="stroke:#181818;stroke-width:1.0;" x1="616.4375" x2="616.4375" y1="121.2656" y2="141.2656"/><polygon fill="#181818" points="612.4375,131.2656,616.4375,141.2656,620.4375,131.2656,616.4375,135.2656" style="stroke:#181818;stroke-width:1.0;"/><line style="stroke:#181818;stroke-width:1.0;" x1="616.4375" x2="616.4375" y1="175.2344" y2="211.082"/><polygon fill="#181818" points="612.4375,201.082,616.4375,211.082,620.4375,201.082,616.4375,205.082" style="stroke:#181818;stroke-width:1.0;"/><line style="stroke:#181818;stroke-width:1.0;" x1="616.4375" x2="616.4375" y1="245.0508" y2="290.8984"/><polygon fill="#181818" points="612.4375,280.8984,616.4375,290.8984,620.4375,280.8984,616.4375,284.8984" style="stroke:#181818;stroke-width:1.0;"/><line style="stroke:#181818;stroke-width:1.0;" x1="616.4375" x2="616.4375" y1="324.8672" y2="353.1484"/><polygon fill="#181818" points="612.4375,343.1484,616.4375,353.1484,620.4375,343.1484,616.4375,347.1484" style="stroke:#181818;stroke-width:1.0;"/><line style="stroke:#181818;stroke-width:1.0;" x1="382.375" x2="382.375" y1="493.3672" y2="513.3672"/><polygon fill="#181818" points="378.375,503.3672,382.375,513.3672,386.375,503.3672,382.375,507.3672" style="stroke:#181818;stroke-width:1.0;"/><line style="stroke:#181818;stroke-width:1.0;" x1="382.375" x2="382.375" y1="547.3359" y2="583.1836"/><polygon fill="#181818" points="378.375,573.1836,382.375,583.1836,386.375,573.1836,382.375,577.1836" style="stroke:#181818;stroke-width:1.0;"/><line style="stroke:#181818;stroke-width:1.0;" x1="382.375" x2="382.375" y1="617.1523" y2="663"/><polygon fill="#181818" points="378.375,653,382.375,663,386.375,653,382.375,657" style="stroke:#181818;stroke-width:1.0;"/><line style="stroke:#181818;stroke-width:1.0;" x1="382.375" x2="382.375" y1="696.9688" y2="716.9688"/><polygon fill="#181818" points="378.375,706.9688,382.375,716.9688,386.375,706.9688,382.375,710.9688" style="stroke:#181818;stroke-width:1.0;"/><line style="stroke:#181818;stroke-width:1.0;" x1="382.375" x2="382.375" y1="750.9375" y2="770.9375"/><polygon fill="#181818" points="378.375,760.9375,382.375,770.9375,386.375,760.9375,382.375,764.9375" style="stroke:#181818;stroke-width:1.0;"/><line style="stroke:#181818;stroke-width:1.0;" x1="382.375" x2="382.375" y1="804.9063" y2="840.7539"/><polygon fill="#181818" points="378.375,830.7539,382.375,840.7539,386.375,830.7539,382.375,834.7539" style="stroke:#181818;stroke-width:1.0;"/><line style="stroke:#181818;stroke-width:1.0;" x1="382.375" x2="382.375" y1="874.7227" y2="920.5703"/><polygon fill="#181818" points="378.375,910.5703,382.375,920.5703,386.375,910.5703,382.375,914.5703" style="stroke:#181818;stroke-width:1.0;"/><line style="stroke:#181818;stroke-width:1.0;" x1="382.375" x2="382.375" y1="954.5391" y2="974.5391"/><polygon fill="#181818" points="378.375,964.5391,382.375,974.5391,386.375,964.5391,382.375,968.5391" style="stroke:#181818;stroke-width:1.0;"/><line style="stroke:#181818;stroke-width:1.0;" x1="212.25" x2="212.25" y1="1096.4766" y2="1116.4766"/><polygon fill="#181818" points="208.25,1106.4766,212.25,1116.4766,216.25,1106.4766,212.25,1110.4766" style="stroke:#181818;stroke-width:1.0;"/><line style="stroke:#181818;stroke-width:1.0;" x1="212.25" x2="212.25" y1="1150.4453" y2="1170.4453"/><polygon fill="#181818" points="208.25,1160.4453,212.25,1170.4453,216.25,1160.4453,212.25,1164.4453" style="stroke:#181818;stroke-width:1.0;"/><line style="stroke:#181818;stroke-width:1.0;" x1="103" x2="103" y1="1292.3828" y2="1312.3828"/><polygon fill="#181818" points="99,1302.3828,103,1312.3828,107,1302.3828,103,1306.3828" style="stroke:#181818;stroke-width:1.0;"/><line style="stroke:#181818;stroke-width:1.0;" x1="143.75" x2="103" y1="1236.4141" y2="1236.4141"/><line style="stroke:#181818;stroke-width:1.0;" x1="103" x2="103" y1="1236.4141" y2="1258.4141"/><polygon fill="#181818" points="99,1248.4141,103,1258.4141,107,1248.4141,103,1252.4141" style="stroke:#181818;stroke-width:1.0;"/><line style="stroke:#181818;stroke-width:1.0;" x1="280.75" x2="321.5" y1="1236.4141" y2="1236.4141"/><line style="stroke:#181818;stroke-width:1.0;" x1="321.5" x2="321.5" y1="1236.4141" y2="1258.4141"/><polygon fill="#181818" points="317.5,1248.4141,321.5,1258.4141,325.5,1248.4141,321.5,1252.4141" style="stroke:#181818;stroke-width:1.0;"/><line style="stroke:#181818;stroke-width:1.0;" x1="103" x2="103" y1="1346.3516" y2="1364.3516"/><line style="stroke:#181818;stroke-width:1.0;" x1="103" x2="200.25" y1="1364.3516" y2="1364.3516"/><polygon fill="#181818" points="190.25,1360.3516,200.25,1364.3516,190.25,1368.3516,194.25,1364.3516" style="stroke:#181818;stroke-width:1.0;"/><line style="stroke:#181818;stroke-width:1.0;" x1="321.5" x2="321.5" y1="1292.3828" y2="1364.3516"/><line style="stroke:#181818;stroke-width:1.0;" x1="321.5" x2="224.25" y1="1364.3516" y2="1364.3516"/><polygon fill="#181818" points="234.25,1360.3516,224.25,1364.3516,234.25,1368.3516,230.25,1364.3516" style="stroke:#181818;stroke-width:1.0;"/><line style="stroke:#181818;stroke-width:1.0;" x1="212.25" x2="212.25" y1="1204.4141" y2="1224.4141"/><polygon fill="#181818" points="208.25,1214.4141,212.25,1224.4141,216.25,1214.4141,212.25,1218.4141" style="stroke:#181818;stroke-width:1.0;"/><line style="stroke:#181818;stroke-width:1.0;" x1="302.375" x2="212.25" y1="1040.5078" y2="1040.5078"/><line style="stroke:#181818;stroke-width:1.0;" x1="212.25" x2="212.25" y1="1040.5078" y2="1062.5078"/><polygon fill="#181818" points="208.25,1052.5078,212.25,1062.5078,216.25,1052.5078,212.25,1056.5078" style="stroke:#181818;stroke-width:1.0;"/><line style="stroke:#181818;stroke-width:1.0;" x1="462.375" x2="552.5" y1="1040.5078" y2="1040.5078"/><line style="stroke:#181818;stroke-width:1.0;" x1="552.5" x2="552.5" y1="1040.5078" y2="1062.5078"/><polygon fill="#181818" points="548.5,1052.5078,552.5,1062.5078,556.5,1052.5078,552.5,1056.5078" style="stroke:#181818;stroke-width:1.0;"/><line style="stroke:#181818;stroke-width:1.0;" x1="212.25" x2="212.25" y1="1376.3516" y2="1394.3516"/><line style="stroke:#181818;stroke-width:1.0;" x1="212.25" x2="370.375" y1="1394.3516" y2="1394.3516"/><polygon fill="#181818" points="360.375,1390.3516,370.375,1394.3516,360.375,1398.3516,364.375,1394.3516" style="stroke:#181818;stroke-width:1.0;"/><line style="stroke:#181818;stroke-width:1.0;" x1="552.5" x2="552.5" y1="1096.4766" y2="1394.3516"/><line style="stroke:#181818;stroke-width:1.0;" x1="552.5" x2="394.375" y1="1394.3516" y2="1394.3516"/><polygon fill="#181818" points="404.375,1390.3516,394.375,1394.3516,404.375,1398.3516,400.375,1394.3516" style="stroke:#181818;stroke-width:1.0;"/><line style="stroke:#181818;stroke-width:1.0;" x1="382.375" x2="382.375" y1="1008.5078" y2="1028.5078"/><polygon fill="#181818" points="378.375,1018.5078,382.375,1028.5078,386.375,1018.5078,382.375,1022.5078" style="stroke:#181818;stroke-width:1.0;"/><line style="stroke:#181818;stroke-width:1.0;" x1="382.375" x2="382.375" y1="1406.3516" y2="1426.3516"/><polygon fill="#181818" points="378.375,1416.3516,382.375,1426.3516,386.375,1416.3516,382.375,1420.3516" style="stroke:#181818;stroke-width:1.0;"/><line style="stroke:#181818;stroke-width:1.0;" x1="617" x2="617" y1="1636.2578" y2="1656.2578"/><polygon fill="#181818" points="613,1646.2578,617,1656.2578,621,1646.2578,617,1650.2578" style="stroke:#181818;stroke-width:1.0;"/><line style="stroke:#181818;stroke-width:1.0;" x1="470.75" x2="423.5" y1="1580.2891" y2="1580.2891"/><line style="stroke:#181818;stroke-width:1.0;" x1="423.5" x2="423.5" y1="1580.2891" y2="1602.2891"/><polygon fill="#181818" points="419.5,1592.2891,423.5,1602.2891,427.5,1592.2891,423.5,1596.2891" style="stroke:#181818;stroke-width:1.0;"/><line style="stroke:#181818;stroke-width:1.0;" x1="569.75" x2="617" y1="1580.2891" y2="1580.2891"/><line style="stroke:#181818;stroke-width:1.0;" x1="617" x2="617" y1="1580.2891" y2="1602.2891"/><polygon fill="#181818" points="613,1592.2891,617,1602.2891,621,1592.2891,617,1596.2891" style="stroke:#181818;stroke-width:1.0;"/><line style="stroke:#181818;stroke-width:1.0;" x1="423.5" x2="423.5" y1="1636.2578" y2="1708.2266"/><line style="stroke:#181818;stroke-width:1.0;" x1="423.5" x2="508.25" y1="1708.2266" y2="1708.2266"/><polygon fill="#181818" points="498.25,1704.2266,508.25,1708.2266,498.25,1712.2266,502.25,1708.2266" style="stroke:#181818;stroke-width:1.0;"/><line style="stroke:#181818;stroke-width:1.0;" x1="617" x2="617" y1="1690.2266" y2="1708.2266"/><line style="stroke:#181818;stroke-width:1.0;" x1="617" x2="532.25" y1="1708.2266" y2="1708.2266"/><polygon fill="#181818" points="542.25,1704.2266,532.25,1708.2266,542.25,1712.2266,538.25,1708.2266" style="stroke:#181818;stroke-width:1.0;"/><line style="stroke:#181818;stroke-width:1.0;" x1="520.25" x2="520.25" y1="1548.2891" y2="1568.2891"/><polygon fill="#181818" points="516.25,1558.2891,520.25,1568.2891,524.25,1558.2891,520.25,1562.2891" style="stroke:#181818;stroke-width:1.0;"/><line style="stroke:#181818;stroke-width:1.0;" x1="266.375" x2="244.5" y1="1492.3203" y2="1492.3203"/><line style="stroke:#181818;stroke-width:1.0;" x1="244.5" x2="244.5" y1="1492.3203" y2="1514.3203"/><polygon fill="#181818" points="240.5,1504.3203,244.5,1514.3203,248.5,1504.3203,244.5,1508.3203" style="stroke:#181818;stroke-width:1.0;"/><line style="stroke:#181818;stroke-width:1.0;" x1="498.375" x2="520.25" y1="1492.3203" y2="1492.3203"/><line style="stroke:#181818;stroke-width:1.0;" x1="520.25" x2="520.25" y1="1492.3203" y2="1514.3203"/><polygon fill="#181818" points="516.25,1504.3203,520.25,1514.3203,524.25,1504.3203,520.25,1508.3203" style="stroke:#181818;stroke-width:1.0;"/><line style="stroke:#181818;stroke-width:1.0;" x1="244.5" x2="244.5" y1="1548.2891" y2="1738.2266"/><line style="stroke:#181818;stroke-width:1.0;" x1="244.5" x2="370.375" y1="1738.2266" y2="1738.2266"/><polygon fill="#181818" points="360.375,1734.2266,370.375,1738.2266,360.375,1742.2266,364.375,1738.2266" style="stroke:#181818;stroke-width:1.0;"/><line style="stroke:#181818;stroke-width:1.0;" x1="520.25" x2="520.25" y1="1720.2266" y2="1738.2266"/><line style="stroke:#181818;stroke-width:1.0;" x1="520.25" x2="394.375" y1="1738.2266" y2="1738.2266"/><polygon fill="#181818" points="404.375,1734.2266,394.375,1738.2266,404.375,1742.2266,400.375,1738.2266" style="stroke:#181818;stroke-width:1.0;"/><line style="stroke:#181818;stroke-width:1.0;" x1="382.375" x2="382.375" y1="1460.3203" y2="1480.3203"/><polygon fill="#181818" points="378.375,1470.3203,382.375,1480.3203,386.375,1470.3203,382.375,1474.3203" style="stroke:#181818;stroke-width:1.0;"/><line style="stroke:#181818;stroke-width:1.0;" x1="565.4375" x2="382.375" y1="437.3984" y2="437.3984"/><line style="stroke:#181818;stroke-width:1.0;" x1="382.375" x2="382.375" y1="437.3984" y2="459.3984"/><polygon fill="#181818" points="378.375,449.3984,382.375,459.3984,386.375,449.3984,382.375,453.3984" style="stroke:#181818;stroke-width:1.0;"/><line style="stroke:#181818;stroke-width:1.0;" x1="667.4375" x2="850.5" y1="437.3984" y2="437.3984"/><line style="stroke:#181818;stroke-width:1.0;" x1="850.5" x2="850.5" y1="437.3984" y2="459.3984"/><polygon fill="#181818" points="846.5,449.3984,850.5,459.3984,854.5,449.3984,850.5,453.3984" style="stroke:#181818;stroke-width:1.0;"/><line style="stroke:#181818;stroke-width:1.0;" x1="382.375" x2="382.375" y1="1750.2266" y2="1768.2266"/><line style="stroke:#181818;stroke-width:1.0;" x1="382.375" x2="604.4375" y1="1768.2266" y2="1768.2266"/><polygon fill="#181818" points="594.4375,1764.2266,604.4375,1768.2266,594.4375,1772.2266,598.4375,1768.2266" style="stroke:#181818;stroke-width:1.0;"/><line style="stroke:#181818;stroke-width:1.0;" x1="850.5" x2="850.5" y1="493.3672" y2="1768.2266"/><line style="stroke:#181818;stroke-width:1.0;" x1="850.5" x2="628.4375" y1="1768.2266" y2="1768.2266"/><polygon fill="#181818" points="638.4375,1764.2266,628.4375,1768.2266,638.4375,1772.2266,634.4375,1768.2266" style="stroke:#181818;stroke-width:1.0;"/><line style="stroke:#181818;stroke-width:1.0;" x1="616.4375" x2="616.4375" y1="387.1172" y2="425.3984"/><polygon fill="#181818" points="612.4375,415.3984,616.4375,425.3984,620.4375,415.3984,616.4375,419.3984" style="stroke:#181818;stroke-width:1.0;"/><line style="stroke:#181818;stroke-width:1.0;" x1="616.4375" x2="616.4375" y1="1780.2266" y2="1808.5078"/><polygon fill="#181818" points="612.4375,1798.5078,616.4375,1808.5078,620.4375,1798.5078,616.4375,1802.5078" style="stroke:#181818;stroke-width:1.0;"/><line style="stroke:#181818;stroke-width:1.0;" x1="507.1875" x2="507.1875" y1="1948.7266" y2="1968.7266"/><polygon fill="#181818" points="503.1875,1958.7266,507.1875,1968.7266,511.1875,1958.7266,507.1875,1962.7266" style="stroke:#181818;stroke-width:1.0;"/><line style="stroke:#181818;stroke-width:1.0;" x1="725.6875" x2="725.6875" y1="1948.7266" y2="1968.7266"/><polygon fill="#181818" points="721.6875,1958.7266,725.6875,1968.7266,729.6875,1958.7266,725.6875,1962.7266" style="stroke:#181818;stroke-width:1.0;"/><line style="stroke:#181818;stroke-width:1.0;" x1="575.4375" x2="507.1875" y1="1892.7578" y2="1892.7578"/><line style="stroke:#181818;stroke-width:1.0;" x1="507.1875" x2="507.1875" y1="1892.7578" y2="1914.7578"/><polygon fill="#181818" points="503.1875,1904.7578,507.1875,1914.7578,511.1875,1904.7578,507.1875,1908.7578" style="stroke:#181818;stroke-width:1.0;"/><line style="stroke:#181818;stroke-width:1.0;" x1="657.4375" x2="725.6875" y1="1892.7578" y2="1892.7578"/><line style="stroke:#181818;stroke-width:1.0;" x1="725.6875" x2="725.6875" y1="1892.7578" y2="1914.7578"/><polygon fill="#181818" points="721.6875,1904.7578,725.6875,1914.7578,729.6875,1904.7578,725.6875,1908.7578" style="stroke:#181818;stroke-width:1.0;"/><line style="stroke:#181818;stroke-width:1.0;" x1="507.1875" x2="507.1875" y1="2002.6953" y2="2020.6953"/><line style="stroke:#181818;stroke-width:1.0;" x1="507.1875" x2="604.4375" y1="2020.6953" y2="2020.6953"/><polygon fill="#181818" points="594.4375,2016.6953,604.4375,2020.6953,594.4375,2024.6953,598.4375,2020.6953" style="stroke:#181818;stroke-width:1.0;"/><line style="stroke:#181818;stroke-width:1.0;" x1="725.6875" x2="725.6875" y1="2002.6953" y2="2020.6953"/><line style="stroke:#181818;stroke-width:1.0;" x1="725.6875" x2="628.4375" y1="2020.6953" y2="2020.6953"/><polygon fill="#181818" points="638.4375,2016.6953,628.4375,2020.6953,638.4375,2024.6953,634.4375,2020.6953" style="stroke:#181818;stroke-width:1.0;"/><line style="stroke:#181818;stroke-width:1.0;" x1="616.4375" x2="616.4375" y1="1842.4766" y2="1880.7578"/><polygon fill="#181818" points="612.4375,1870.7578,616.4375,1880.7578,620.4375,1870.7578,616.4375,1874.7578" style="stroke:#181818;stroke-width:1.0;"/><line style="stroke:#181818;stroke-width:1.0;" x1="616.4375" x2="616.4375" y1="2032.6953" y2="2068.543"/><polygon fill="#181818" points="612.4375,2058.543,616.4375,2068.543,620.4375,2058.543,616.4375,2062.543" style="stroke:#181818;stroke-width:1.0;"/><line style="stroke:#181818;stroke-width:1.0;" x1="616.4375" x2="616.4375" y1="2102.5117" y2="2148.3594"/><polygon fill="#181818" points="612.4375,2138.3594,616.4375,2148.3594,620.4375,2138.3594,616.4375,2142.3594" style="stroke:#181818;stroke-width:1.0;"/><line style="stroke:#181818;stroke-width:1.0;" x1="616.4375" x2="616.4375" y1="2182.3281" y2="2202.3281"/><polygon fill="#181818" points="612.4375,2192.3281,616.4375,2202.3281,620.4375,2192.3281,616.4375,2196.3281" style="stroke:#181818;stroke-width:1.0;"/><line style="stroke:#181818;stroke-width:1.0;" x1="616.4375" x2="616.4375" y1="2236.2969" y2="2264.5781"/><polygon fill="#181818" points="612.4375,2254.5781,616.4375,2264.5781,620.4375,2254.5781,616.4375,2258.5781" style="stroke:#181818;stroke-width:1.0;"/><line style="stroke:#181818;stroke-width:1.0;" x1="616.4375" x2="616.4375" y1="2298.5469" y2="2336.8281"/><polygon fill="#181818" points="612.4375,2326.8281,616.4375,2336.8281,620.4375,2326.8281,616.4375,2330.8281" style="stroke:#181818;stroke-width:1.0;"/><!--MD5=[21beaf9c26000eb9432e612e4e33bd3a]
@startuml
title TransCredit New System Workflow - Desired State

start

:Receive Agent Report;
:Store in PlateauGroup.Web Database;

:Enhanced Certificate Search;
note right
  New Search Capabilities:
  - First/Last Name (wildcards)
  - Birthday
  - SSN
  - Claim Number
end note

:Input Certificate Data;
:Run Enhanced Error Checking;
note right
  Integrated Error Checks:
  - All Access/SQL validations
  - Certificate validation
  - Agent limit verification
end note

if (Errors found?) then (yes)
  :Create CertError records;
  :Generate Agent Communication;
  
  :Send Email to Agent;
  note right
    Email includes:
    - AgentReportEmail ID
    - Spreadsheet attachments
    - DMZ website link
    - Specific certificates to fix
  end note
  
  :Copy Data to DMZ Database;
  :Store AgentReportEmail record;
  
  :Agent receives email;
  :Agent logs into DMZ Website;
  note right
    DMZ Features:
    - Auth0 MFA authentication
    - View pending reports
    - Edit certificates
    - Submit corrections
  end note
  
  :Agent makes corrections;
  :DMZ system validates changes;
  
  if (Agent corrections valid?) then (yes)
    :Insert OpsLog message;
    :Notify PlateauGroup.Web user;
    
    :User reviews changes;
    if (Changes approved?) then (yes)
      :Update apsPlateau tables;
      :Sync DMZ changes;
    else (no)
      :Request additional corrections;
    endif
  else (no)
    :Request agent to fix errors;
  endif
  
  :Monitor Inbound Email;
  if (Email contains AgentReportEmail ID?) then (yes)
    :Parse and store response;
  else (no)
    :Search for matching outbound email;
    if (Match found?) then (yes)
      :Link responses;
    else (no)
      :Reply to agent with instructions;
      :Forward to user for manual review;
    endif
  endif
  
else (no)
  :Proceed to balancing;
endif

:Balance Report and Remittance;
note right
  Balancing Process:
  - Compare Report vs Remittance
  - Validate against CertMaster
  - Financial reconciliation
end note

if (Balanced?) then (yes)
  :Complete Report Processing;
  :Generate final documentation;
else (no)
  :Adjust balances;
  :Create adjustment records;
endif

:Log All Certificate Changes;
note right
  Audit Logging:
  - Every change tracked
  - Reason required
  - User and timestamp
  - Old/New values
end note

:Generate Communication Summary;
:Display on Agent Report Tab;

:Clean up DMZ Data;
note right
  After report completion:
  - Delete DMZ certificate records
  - Delete agent report records
  - Maintain audit trail
end note

stop
@enduml

PlantUML version 1.2022.7(Mon Aug 22 17:01:30 UTC 2022)
(GPL source distribution)
Java Runtime: OpenJDK Runtime Environment
JVM: OpenJDK 64-Bit Server VM
Default Encoding: UTF-8
Language: en
Country: null
--></g></svg>