<svg xmlns="http://www.w3.org/2000/svg" xmlns:xlink="http://www.w3.org/1999/xlink" contentStyleType="text/css" data-diagram-type="ACTIVITY" height="820px" preserveAspectRatio="none" style="width:798px;height:820px;background:#FFFFFF;" version="1.1" viewBox="0 0 798 820" width="798px" zoomAndPan="magnify"><title>TransCredit Cancellation Processing (As Is)</title><defs/><g><g class="title" data-source-line="1"><text fill="#000000" font-family="sans-serif" font-size="14" font-weight="bold" lengthAdjust="spacing" textLength="312.1357" x="241.6997" y="33.5352">TransCredit Cancellation Processing (As Is)</text></g><ellipse cx="282.5" cy="57.4883" fill="#222222" rx="10" ry="10" style="stroke:#222222;stroke-width:1;"/><path d="M397.0889,77.4883 L397.0889,124.4199 L377.0889,128.4199 L397.0889,132.4199 L397.0889,179.3516 A0,0 0 0 0 397.0889,179.3516 L653.7393,179.3516 A0,0 0 0 0 653.7393,179.3516 L653.7393,87.4883 L643.7393,77.4883 L397.0889,77.4883 A0,0 0 0 0 397.0889,77.4883" fill="#FEFFDD" style="stroke:#181818;stroke-width:0.5;"/><path d="M643.7393,77.4883 L643.7393,87.4883 L653.7393,87.4883 L643.7393,77.4883" fill="#FEFFDD" style="stroke:#181818;stroke-width:0.5;"/><text fill="#000000" font-family="sans-serif" font-size="13" lengthAdjust="spacing" textLength="164.563" x="403.0889" y="95.0566">Cancellations occur when:</text><text fill="#000000" font-family="sans-serif" font-size="13" lengthAdjust="spacing" textLength="129.2764" x="403.0889" y="110.3672">- Loan paid off early</text><text fill="#000000" font-family="sans-serif" font-size="13" lengthAdjust="spacing" textLength="118.3267" x="403.0889" y="125.6777">- Loan charged off</text><text fill="#000000" font-family="sans-serif" font-size="13" lengthAdjust="spacing" textLength="112.4106" x="403.0889" y="140.9883">- Loan refinanced</text><text fill="#000000" font-family="sans-serif" font-size="13" lengthAdjust="spacing" textLength="235.6504" x="403.0889" y="156.2988">- Life claim paid (disability cancelled)</text><text fill="#000000" font-family="sans-serif" font-size="13" lengthAdjust="spacing" textLength="231.4673" x="403.0889" y="171.6094">Received via email or monthly report</text><rect fill="#F1F1F1" height="34.1328" rx="12.5" ry="12.5" style="stroke:#181818;stroke-width:0.5;" width="189.1777" x="187.9111" y="111.3535"/><text fill="#000000" font-family="sans-serif" font-size="12" lengthAdjust="spacing" textLength="169.1777" x="197.9111" y="132.9551">Receive Cancellation Request</text><path d="M386.5596,189.3516 L386.5596,213.3174 L366.5596,217.3174 L386.5596,221.3174 L386.5596,245.2832 A0,0 0 0 0 386.5596,245.2832 L675.8496,245.2832 A0,0 0 0 0 675.8496,245.2832 L675.8496,199.3516 L665.8496,189.3516 L386.5596,189.3516 A0,0 0 0 0 386.5596,189.3516" fill="#FEFFDD" style="stroke:#181818;stroke-width:0.5;"/><path d="M665.8496,189.3516 L665.8496,199.3516 L675.8496,199.3516 L665.8496,189.3516" fill="#FEFFDD" style="stroke:#181818;stroke-width:0.5;"/><text fill="#000000" font-family="sans-serif" font-size="13" lengthAdjust="spacing" textLength="261.4536" x="392.5596" y="206.9199">System automatically finds last certificate</text><text fill="#000000" font-family="sans-serif" font-size="13" lengthAdjust="spacing" textLength="268.29" x="392.5596" y="222.2305">by agent number and pre-fills information</text><text fill="#000000" font-family="sans-serif" font-size="13" lengthAdjust="spacing" textLength="192.7656" x="392.5596" y="237.541">Staff verifies correct certificate</text><rect fill="#F1F1F1" height="34.1328" rx="12.5" ry="12.5" style="stroke:#181818;stroke-width:0.5;" width="168.1191" x="198.4404" y="200.251"/><text fill="#000000" font-family="sans-serif" font-size="12" lengthAdjust="spacing" textLength="148.1191" x="208.4404" y="221.8525">Find Certificate in System</text><path d="M364.0479,262.0391 L364.0479,278.3496 L344.0479,282.3496 L364.0479,286.3496 L364.0479,302.6602 A0,0 0 0 0 364.0479,302.6602 L567.9937,302.6602 A0,0 0 0 0 567.9937,302.6602 L567.9937,272.0391 L557.9937,262.0391 L364.0479,262.0391 A0,0 0 0 0 364.0479,262.0391" fill="#FEFFDD" style="stroke:#181818;stroke-width:0.5;"/><path d="M557.9937,262.0391 L557.9937,272.0391 L567.9937,272.0391 L557.9937,262.0391" fill="#FEFFDD" style="stroke:#181818;stroke-width:0.5;"/><text fill="#000000" font-family="sans-serif" font-size="13" lengthAdjust="spacing" textLength="182.9458" x="370.0479" y="279.6074">Staff enters cancellation date</text><text fill="#000000" font-family="sans-serif" font-size="13" lengthAdjust="spacing" textLength="152.0835" x="370.0479" y="294.918">provided by bank/agent</text><rect fill="#F1F1F1" height="34.1328" rx="12.5" ry="12.5" style="stroke:#181818;stroke-width:0.5;" width="123.0957" x="220.9521" y="265.2832"/><text fill="#000000" font-family="sans-serif" font-size="12" lengthAdjust="spacing" textLength="103.0957" x="230.9521" y="286.8848">Enter Cancel Date</text><path d="M389.2695,312.6602 L389.2695,336.626 L369.2695,340.626 L389.2695,344.626 L389.2695,368.5918 A0,0 0 0 0 389.2695,368.5918 L685.4468,368.5918 A0,0 0 0 0 685.4468,368.5918 L685.4468,322.6602 L675.4468,312.6602 L389.2695,312.6602 A0,0 0 0 0 389.2695,312.6602" fill="#FEFFDD" style="stroke:#181818;stroke-width:0.5;"/><path d="M675.4468,312.6602 L675.4468,322.6602 L685.4468,322.6602 L675.4468,312.6602" fill="#FEFFDD" style="stroke:#181818;stroke-width:0.5;"/><text fill="#000000" font-family="sans-serif" font-size="13" lengthAdjust="spacing" textLength="199.0562" x="395.2695" y="330.2285">System automatically calculates</text><text fill="#000000" font-family="sans-serif" font-size="13" lengthAdjust="spacing" textLength="275.1772" x="395.2695" y="345.5391">premium refund based on cancellation date</text><text fill="#000000" font-family="sans-serif" font-size="13" lengthAdjust="spacing" textLength="263.3579" x="395.2695" y="360.8496">Uses refund method (pro-rata or Rule 78)</text><rect fill="#F1F1F1" height="34.1328" rx="12.5" ry="12.5" style="stroke:#181818;stroke-width:0.5;" width="173.5391" x="195.7305" y="323.5596"/><text fill="#000000" font-family="sans-serif" font-size="12" lengthAdjust="spacing" textLength="153.5391" x="205.7305" y="345.1611">Calculate Premium Refund</text><path d="M390.8926,385.3477 L390.8926,401.6582 L370.8926,405.6582 L390.8926,409.6582 L390.8926,425.9688 A0,0 0 0 0 390.8926,425.9688 L582.1558,425.9688 A0,0 0 0 0 582.1558,425.9688 L582.1558,395.3477 L572.1558,385.3477 L390.8926,385.3477 A0,0 0 0 0 390.8926,385.3477" fill="#FEFFDD" style="stroke:#181818;stroke-width:0.5;"/><path d="M572.1558,385.3477 L572.1558,395.3477 L582.1558,395.3477 L572.1558,385.3477" fill="#FEFFDD" style="stroke:#181818;stroke-width:0.5;"/><text fill="#000000" font-family="sans-serif" font-size="13" lengthAdjust="spacing" textLength="170.2632" x="396.8926" y="402.916">Staff enters refund amount</text><text fill="#000000" font-family="sans-serif" font-size="13" lengthAdjust="spacing" textLength="109.8081" x="396.8926" y="418.2266">provided by bank</text><rect fill="#F1F1F1" height="34.1328" rx="12.5" ry="12.5" style="stroke:#181818;stroke-width:0.5;" width="176.7852" x="194.1074" y="388.5918"/><text fill="#000000" font-family="sans-serif" font-size="12" lengthAdjust="spacing" textLength="156.7852" x="204.1074" y="410.1934">Enter Bank Refund Amount</text><path d="M360.6611,435.9688 L360.6611,467.5898 L340.6611,471.5898 L360.6611,475.5898 L360.6611,507.2109 A0,0 0 0 0 360.6611,507.2109 L583.0913,507.2109 A0,0 0 0 0 583.0913,507.2109 L583.0913,445.9688 L573.0913,435.9688 L360.6611,435.9688 A0,0 0 0 0 360.6611,435.9688" fill="#FEFFDD" style="stroke:#181818;stroke-width:0.5;"/><path d="M573.0913,435.9688 L573.0913,445.9688 L583.0913,445.9688 L573.0913,435.9688" fill="#FEFFDD" style="stroke:#181818;stroke-width:0.5;"/><text fill="#000000" font-family="sans-serif" font-size="13" lengthAdjust="spacing" textLength="191.8325" x="366.6611" y="453.5371">System checks if bank amount</text><text fill="#000000" font-family="sans-serif" font-size="13" lengthAdjust="spacing" textLength="115.4575" x="366.6611" y="468.8477">is within tolerance</text><text fill="#000000" font-family="sans-serif" font-size="13" lengthAdjust="spacing" textLength="164.4995" x="366.6611" y="484.1582">- Within tolerance: Accept</text><text fill="#000000" font-family="sans-serif" font-size="13" lengthAdjust="spacing" textLength="201.4302" x="366.6611" y="499.4688">- Out of tolerance: Flag as error</text><rect fill="#F1F1F1" height="34.1328" rx="12.5" ry="12.5" style="stroke:#181818;stroke-width:0.5;" width="116.3223" x="224.3389" y="454.5234"/><text fill="#000000" font-family="sans-serif" font-size="12" lengthAdjust="spacing" textLength="96.3223" x="234.3389" y="476.125">Tolerance Check</text><polygon fill="#F1F1F1" points="236.9988,527.2109,328.0012,527.2109,340.0012,539.2109,328.0012,551.2109,236.9988,551.2109,224.9988,539.2109,236.9988,527.2109" style="stroke:#181818;stroke-width:0.5;"/><text fill="#000000" font-family="sans-serif" font-size="11" lengthAdjust="spacing" textLength="91.0024" x="236.9988" y="543.3682">Within tolerance?</text><text fill="#000000" font-family="sans-serif" font-size="11" lengthAdjust="spacing" textLength="17.4829" x="207.5159" y="536.8906">yes</text><text fill="#000000" font-family="sans-serif" font-size="11" lengthAdjust="spacing" textLength="13.5835" x="340.0012" y="536.8906">no</text><path d="M165.6445,561.2109 L165.6445,585.1768 L145.6445,589.1768 L165.6445,593.1768 L165.6445,617.1426 A0,0 0 0 0 165.6445,617.1426 L420.2002,617.1426 A0,0 0 0 0 420.2002,617.1426 L420.2002,571.2109 L410.2002,561.2109 L165.6445,561.2109 A0,0 0 0 0 165.6445,561.2109" fill="#FEFFDD" style="stroke:#181818;stroke-width:0.5;"/><path d="M410.2002,561.2109 L410.2002,571.2109 L420.2002,571.2109 L410.2002,561.2109" fill="#FEFFDD" style="stroke:#181818;stroke-width:0.5;"/><text fill="#000000" font-family="sans-serif" font-size="13" lengthAdjust="spacing" textLength="117.584" x="171.6445" y="578.7793">Cancellation saved</text><text fill="#000000" font-family="sans-serif" font-size="13" lengthAdjust="spacing" textLength="233.5557" x="171.6445" y="594.0898">Transaction Type = 20 (Cancellation)</text><text fill="#000000" font-family="sans-serif" font-size="13" lengthAdjust="spacing" textLength="153.4736" x="171.6445" y="609.4004">Appears in C-List report</text><rect fill="#F1F1F1" height="34.1328" rx="12.5" ry="12.5" style="stroke:#181818;stroke-width:0.5;" width="134.6445" x="11" y="572.1104"/><text fill="#000000" font-family="sans-serif" font-size="12" lengthAdjust="spacing" textLength="114.6445" x="21" y="593.7119">Accept Cancellation</text><path d="M553.1553,561.2109 L553.1553,585.1768 L533.1553,589.1768 L553.1553,593.1768 L553.1553,617.1426 A0,0 0 0 0 553.1553,617.1426 L786.5352,617.1426 A0,0 0 0 0 786.5352,617.1426 L786.5352,571.2109 L776.5352,561.2109 L553.1553,561.2109 A0,0 0 0 0 553.1553,561.2109" fill="#FEFFDD" style="stroke:#181818;stroke-width:0.5;"/><path d="M776.5352,561.2109 L776.5352,571.2109 L786.5352,571.2109 L776.5352,561.2109" fill="#FEFFDD" style="stroke:#181818;stroke-width:0.5;"/><text fill="#000000" font-family="sans-serif" font-size="13" lengthAdjust="spacing" textLength="159.3706" x="559.1553" y="578.7793">Error appears in error list</text><text fill="#000000" font-family="sans-serif" font-size="13" lengthAdjust="spacing" textLength="212.3799" x="559.1553" y="594.0898">Shows calculated vs bank amount</text><text fill="#000000" font-family="sans-serif" font-size="13" lengthAdjust="spacing" textLength="191.166" x="559.1553" y="609.4004">Staff contacts agent to resolve</text><rect fill="#F1F1F1" height="34.1328" rx="12.5" ry="12.5" style="stroke:#181818;stroke-width:0.5;" width="92.9551" x="440.2002" y="572.1104"/><text fill="#000000" font-family="sans-serif" font-size="12" lengthAdjust="spacing" textLength="72.9551" x="450.2002" y="593.7119">Flag as Error</text><polygon fill="#F1F1F1" points="282.5,623.1426,294.5,635.1426,282.5,647.1426,270.5,635.1426,282.5,623.1426" style="stroke:#181818;stroke-width:0.5;"/><path d="M374.0645,657.1426 L374.0645,681.1084 L354.0645,685.1084 L374.0645,689.1084 L374.0645,713.0742 A0,0 0 0 0 374.0645,713.0742 L592.0703,713.0742 A0,0 0 0 0 592.0703,713.0742 L592.0703,667.1426 L582.0703,657.1426 L374.0645,657.1426 A0,0 0 0 0 374.0645,657.1426" fill="#FEFFDD" style="stroke:#181818;stroke-width:0.5;"/><path d="M582.0703,657.1426 L582.0703,667.1426 L592.0703,667.1426 L582.0703,657.1426" fill="#FEFFDD" style="stroke:#181818;stroke-width:0.5;"/><text fill="#000000" font-family="sans-serif" font-size="13" lengthAdjust="spacing" textLength="195.2729" x="380.0645" y="674.7109">Cancellation transaction added</text><text fill="#000000" font-family="sans-serif" font-size="13" lengthAdjust="spacing" textLength="147.5132" x="380.0645" y="690.0215">to Customer List report</text><text fill="#000000" font-family="sans-serif" font-size="13" lengthAdjust="spacing" textLength="197.0059" x="380.0645" y="705.332">Shows refund amount and date</text><rect fill="#F1F1F1" height="34.1328" rx="12.5" ry="12.5" style="stroke:#181818;stroke-width:0.5;" width="143.1289" x="210.9355" y="668.042"/><text fill="#000000" font-family="sans-serif" font-size="12" lengthAdjust="spacing" textLength="123.1289" x="220.9355" y="689.6436">Update C-List Report</text><rect fill="#F1F1F1" height="34.1328" rx="12.5" ry="12.5" style="stroke:#181818;stroke-width:0.5;" width="217.2793" x="173.8604" y="733.0742"/><text fill="#000000" font-family="sans-serif" font-size="12" lengthAdjust="spacing" textLength="197.2793" x="183.8604" y="754.6758">Complete Cancellation Processing</text><ellipse cx="282.5" cy="798.207" fill="none" rx="11" ry="11" style="stroke:#222222;stroke-width:1;"/><ellipse cx="282.5" cy="798.207" fill="#222222" rx="6" ry="6" style="stroke:#222222;stroke-width:1;"/><line style="stroke:#181818;stroke-width:1;" x1="282.5" x2="282.5" y1="67.4883" y2="111.3535"/><polygon fill="#181818" points="278.5,101.3535,282.5,111.3535,286.5,101.3535,282.5,105.3535" style="stroke:#181818;stroke-width:1;"/><line style="stroke:#181818;stroke-width:1;" x1="282.5" x2="282.5" y1="145.4863" y2="200.251"/><polygon fill="#181818" points="278.5,190.251,282.5,200.251,286.5,190.251,282.5,194.251" style="stroke:#181818;stroke-width:1;"/><line style="stroke:#181818;stroke-width:1;" x1="282.5" x2="282.5" y1="234.3838" y2="265.2832"/><polygon fill="#181818" points="278.5,255.2832,282.5,265.2832,286.5,255.2832,282.5,259.2832" style="stroke:#181818;stroke-width:1;"/><line style="stroke:#181818;stroke-width:1;" x1="282.5" x2="282.5" y1="299.416" y2="323.5596"/><polygon fill="#181818" points="278.5,313.5596,282.5,323.5596,286.5,313.5596,282.5,317.5596" style="stroke:#181818;stroke-width:1;"/><line style="stroke:#181818;stroke-width:1;" x1="282.5" x2="282.5" y1="357.6924" y2="388.5918"/><polygon fill="#181818" points="278.5,378.5918,282.5,388.5918,286.5,378.5918,282.5,382.5918" style="stroke:#181818;stroke-width:1;"/><line style="stroke:#181818;stroke-width:1;" x1="282.5" x2="282.5" y1="422.7246" y2="454.5234"/><polygon fill="#181818" points="278.5,444.5234,282.5,454.5234,286.5,444.5234,282.5,448.5234" style="stroke:#181818;stroke-width:1;"/><line style="stroke:#181818;stroke-width:1;" x1="224.9988" x2="78.3223" y1="539.2109" y2="539.2109"/><line style="stroke:#181818;stroke-width:1;" x1="78.3223" x2="78.3223" y1="539.2109" y2="572.1104"/><polygon fill="#181818" points="74.3223,562.1104,78.3223,572.1104,82.3223,562.1104,78.3223,566.1104" style="stroke:#181818;stroke-width:1;"/><line style="stroke:#181818;stroke-width:1;" x1="340.0012" x2="486.6777" y1="539.2109" y2="539.2109"/><line style="stroke:#181818;stroke-width:1;" x1="486.6777" x2="486.6777" y1="539.2109" y2="572.1104"/><polygon fill="#181818" points="482.6777,562.1104,486.6777,572.1104,490.6777,562.1104,486.6777,566.1104" style="stroke:#181818;stroke-width:1;"/><line style="stroke:#181818;stroke-width:1;" x1="78.3223" x2="78.3223" y1="606.2432" y2="635.1426"/><line style="stroke:#181818;stroke-width:1;" x1="78.3223" x2="270.5" y1="635.1426" y2="635.1426"/><polygon fill="#181818" points="260.5,631.1426,270.5,635.1426,260.5,639.1426,264.5,635.1426" style="stroke:#181818;stroke-width:1;"/><line style="stroke:#181818;stroke-width:1;" x1="486.6777" x2="486.6777" y1="606.2432" y2="635.1426"/><line style="stroke:#181818;stroke-width:1;" x1="486.6777" x2="294.5" y1="635.1426" y2="635.1426"/><polygon fill="#181818" points="304.5,631.1426,294.5,635.1426,304.5,639.1426,300.5,635.1426" style="stroke:#181818;stroke-width:1;"/><line style="stroke:#181818;stroke-width:1;" x1="282.5" x2="282.5" y1="488.6563" y2="527.2109"/><polygon fill="#181818" points="278.5,517.2109,282.5,527.2109,286.5,517.2109,282.5,521.2109" style="stroke:#181818;stroke-width:1;"/><line style="stroke:#181818;stroke-width:1;" x1="282.5" x2="282.5" y1="647.1426" y2="668.042"/><polygon fill="#181818" points="278.5,658.042,282.5,668.042,286.5,658.042,282.5,662.042" style="stroke:#181818;stroke-width:1;"/><line style="stroke:#181818;stroke-width:1;" x1="282.5" x2="282.5" y1="702.1748" y2="733.0742"/><polygon fill="#181818" points="278.5,723.0742,282.5,733.0742,286.5,723.0742,282.5,727.0742" style="stroke:#181818;stroke-width:1;"/><line style="stroke:#181818;stroke-width:1;" x1="282.5" x2="282.5" y1="767.207" y2="787.207"/><polygon fill="#181818" points="278.5,777.207,282.5,787.207,286.5,777.207,282.5,781.207" style="stroke:#181818;stroke-width:1;"/><!--SRC=[ZLJ1Rjim3BtxAtXC3i66NJQa68RCQu411LQaBNPc93eMAakUIAVmtu-MayNEic8tWwGUttiaBKuymLF2m6KYwmHA38QyHt4nm4EAXfXTsCDYm_2TbqN1WacAOhqbG-v0ymTR-jKHoqqHeX0ajw-bW5a9GpIcI_1QKrXhRWNt4GEqw2p4gWB2vFjptDIOzfHJvs2YoeK1quunLn4OZwuPOHRMCUwSTzA36LkJNMhfaRA5WqEW1fs7cA29GMhVAseRLHa52mDxbNZdzBka9Avo1bMG2_3Oir1p8N0C0dOI6rLfq2kUShGC7bd0d36qUjS3xYa8XAxPKGBKBcsYLUMyP-rHnTHahmPaGJNbG4cV4uE9AP6P0qu8tmPHlD5k-AR9IvuPZOOgFbap3iwErDeK3ywgGyfnX-7bNIOwRL6YDvqVp7X8rBYkKLUhBjZ_SSIStd9kDJvF-Rbsus7CuIgjPrRjnyA6f8uwPAMwIYWuZ73RwHP__BJysuklAkB843PDx8AyPScn1UR2AtPCyP-YfpHmXR8cyt9TlnbIEjCgFpy3EuPN9xNkavnWyYh_l0YkOMCCjPAJFphHEvWcxppk0HaefPWcvBJVuXBgon94RmuMFV5m3EiHUNQSDngVoPZVBZ0Uyit1-Cj0awDFVKlm6JwyXyMqUfaBDssh9psiDPIhUwV7SBmpW3zyoJF18iHCwwJfTj1qXL2E0vvXitZm2ftpZtLyvVEgwR7pXVcdeHizV9N0nskKgDGu-WFDk0NhAXttSpliuad3DcjuupS7CZ48hSssQOUoOxq8NSov5IFfsVhbtuAzEF0oDgqdeN_zfc-6_tDiYzy0]--></g></svg>